<svg width="34" height="35" viewBox="0 0 34 35" fill="none" xmlns="http://www.w3.org/2000/svg">
<g clip-path="url(#clip0_103_2)">
<rect x="17" y="-1" width="26.3408" height="50.397" fill="white"/>
<rect x="-9" y="-5" width="26.3408" height="50.397" fill="black"/>
<path d="M8.33286 24.0369C7.53933 24.0376 6.7096 23.9392 5.84369 23.7417C4.99581 23.5441 4.27397 23.166 3.67815 22.6075C3.64204 22.5715 3.62396 22.5354 3.62392 22.4994C3.62383 22.4272 3.66888 22.3911 3.75905 22.391L3.86729 22.418C4.40856 22.5978 4.95877 22.7235 5.51794 22.7952C6.07711 22.8668 6.63623 22.9023 7.19532 22.9018C7.79047 22.9012 8.48471 22.8104 9.27803 22.6293C10.0713 22.4301 10.8375 22.1409 11.5765 21.7614C12.3335 21.382 12.9551 20.9125 13.4414 20.3529C13.9277 19.7934 14.1704 19.1439 14.1695 18.4045C14.1689 17.8454 13.979 17.4308 13.5999 17.1606C13.2209 16.8724 12.7698 16.6744 12.2466 16.5667C11.7415 16.459 11.2725 16.4053 10.8397 16.4057C10.3708 16.4062 9.82079 16.4608 9.18969 16.5696C8.55858 16.6604 7.9546 16.8233 7.37776 17.0583C6.8009 17.2752 6.35038 17.5732 6.0262 17.9523C5.39589 18.7284 4.84682 19.5675 4.37898 20.4697C3.92916 21.3539 3.44324 22.22 2.92123 23.0681C2.8493 23.2486 2.7412 23.3388 2.59692 23.339C2.50675 23.3391 2.4616 23.285 2.46147 23.1768C2.46138 23.1046 2.47035 23.0595 2.48836 23.0415C2.63206 22.5544 2.82087 22.0853 3.05479 21.6342C3.30673 21.1651 3.54966 20.714 3.78361 20.2809C3.87359 20.1185 4.04457 19.8208 4.29654 19.3877C4.56653 18.9366 4.88152 18.4133 5.24152 17.8178C5.60149 17.2042 5.97949 16.5817 6.37551 15.9501C6.78954 15.3004 7.17658 14.6959 7.53661 14.1365C7.89665 13.577 8.20271 13.1259 8.45479 12.783C8.72491 12.4401 8.89604 12.2686 8.96818 12.2685C9.05835 12.2684 9.20267 12.3043 9.40114 12.3763C9.61763 12.4302 9.82511 12.5021 10.0236 12.5921C10.2221 12.6641 10.3484 12.7361 10.4026 12.8082C9.86227 13.4219 9.32195 14.0356 8.78163 14.6493C8.24129 15.2449 7.70997 15.8496 7.18769 16.4633C8.0352 16.3543 8.9187 16.1731 9.83818 15.9197C10.7576 15.6483 11.6049 15.341 12.38 14.9976C12.6504 14.8711 12.9748 14.6994 13.3533 14.4826C13.7317 14.2478 14.1102 13.986 14.4886 13.697C14.8669 13.3901 15.1822 13.0742 15.4343 12.7493C15.6864 12.4244 15.8122 12.0907 15.8118 11.748C15.8114 11.4053 15.6668 11.153 15.3781 10.991C15.1074 10.8289 14.7916 10.73 14.4309 10.6943C14.0882 10.6405 13.7906 10.6137 13.5381 10.614C12.5281 10.6149 11.5454 10.7511 10.5898 11.0225C9.63429 11.2759 8.67877 11.5564 7.72329 11.8639C7.65117 11.882 7.57905 11.9001 7.50693 11.9182C7.43481 11.9363 7.36268 11.9454 7.29054 11.9455C7.07412 11.9457 6.91172 11.8737 6.80334 11.7295C6.69496 11.5853 6.64066 11.414 6.64042 11.2157C6.63989 10.7648 6.82889 10.458 7.20743 10.2953C7.33361 10.2411 7.45981 10.2049 7.58604 10.1868C7.73027 10.1506 7.8655 10.1234 7.99173 10.1052C8.85715 9.88798 9.73161 9.68877 10.6151 9.50759C11.5166 9.32638 12.4093 9.23536 13.293 9.23452C13.7799 9.23406 14.312 9.29668 14.8893 9.42238C15.4846 9.53002 15.9898 9.74597 16.405 10.0702C16.8382 10.3944 17.0552 10.8721 17.0559 11.5034C17.0566 12.0805 16.8408 12.6127 16.4086 13.1001C15.9763 13.5694 15.4357 13.9847 14.7869 14.346C14.1381 14.7073 13.4892 15.0145 12.8402 15.2676C12.2093 15.5207 11.6685 15.7106 11.2178 15.8373C10.7851 15.9639 10.5687 16.0363 10.5688 16.0543L10.6499 16.0542C10.7942 16.0541 10.9385 16.054 11.0828 16.0538C11.245 16.0356 11.3983 16.0265 11.5426 16.0263C11.9754 16.0259 12.4444 16.0706 12.9495 16.1603C13.4726 16.2319 13.9597 16.3667 14.4108 16.5647C14.8799 16.7626 15.259 17.0418 15.548 17.4022C15.855 17.7446 16.0088 18.1953 16.0095 18.7544C16.0099 19.1331 15.9382 19.5029 15.7944 19.8638C15.6505 20.2066 15.4705 20.5314 15.2545 20.8382C14.7504 21.56 14.1199 22.1558 13.3629 22.6254C12.606 23.095 11.7949 23.4475 10.9295 23.6828C10.0641 23.918 9.19854 24.0361 8.33286 24.0369Z" fill="white"/>
<path d="M23.3329 24.0369C22.5393 24.0376 21.7096 23.9392 20.8437 23.7417C19.9958 23.5441 19.274 23.166 18.6782 22.6075C18.642 22.5715 18.624 22.5354 18.6239 22.4994C18.6238 22.4272 18.6689 22.3911 18.7591 22.391L18.8673 22.418C19.4086 22.5978 19.9588 22.7235 20.5179 22.7952C21.0771 22.8668 21.6362 22.9023 22.1953 22.9018C22.7905 22.9012 23.4847 22.8104 24.278 22.6293C25.0713 22.4301 25.8375 22.1409 26.5765 21.7614C27.3335 21.382 27.9551 20.9125 28.4414 20.3529C28.9277 19.7934 29.1704 19.1439 29.1695 18.4045C29.1689 17.8454 28.979 17.4308 28.5999 17.1606C28.2209 16.8724 27.7698 16.6744 27.2466 16.5667C26.7415 16.459 26.2725 16.4053 25.8397 16.4057C25.3708 16.4062 24.8208 16.4608 24.1897 16.5696C23.5586 16.6604 22.9546 16.8233 22.3778 17.0583C21.8009 17.2752 21.3504 17.5732 21.0262 17.9523C20.3959 18.7284 19.8468 19.5675 19.379 20.4697C18.9292 21.3539 18.4432 22.22 17.9212 23.0681C17.8493 23.2486 17.7412 23.3388 17.5969 23.339C17.5067 23.3391 17.4616 23.285 17.4615 23.1768C17.4614 23.1046 17.4703 23.0595 17.4884 23.0415C17.6321 22.5544 17.8209 22.0853 18.0548 21.6342C18.3067 21.1651 18.5497 20.714 18.7836 20.2809C18.8736 20.1185 19.0446 19.8208 19.2965 19.3877C19.5665 18.9366 19.8815 18.4133 20.2415 17.8178C20.6015 17.2042 20.9795 16.5817 21.3755 15.9501C21.7895 15.3004 22.1766 14.6959 22.5366 14.1365C22.8966 13.577 23.2027 13.1259 23.4548 12.783C23.7249 12.4401 23.896 12.2686 23.9682 12.2685C24.0584 12.2684 24.2027 12.3043 24.4011 12.3763C24.6176 12.4302 24.8251 12.5021 25.0236 12.5921C25.2221 12.6641 25.3484 12.7361 25.4026 12.8082C24.8623 13.4219 24.322 14.0356 23.7816 14.6493C23.2413 15.2449 22.71 15.8496 22.1877 16.4633C23.0352 16.3543 23.9187 16.1731 24.8382 15.9197C25.7576 15.6483 26.6049 15.341 27.38 14.9976C27.6504 14.8711 27.9748 14.6994 28.3533 14.4826C28.7317 14.2478 29.1102 13.986 29.4886 13.697C29.8669 13.3901 30.1822 13.0742 30.4343 12.7493C30.6864 12.4244 30.8122 12.0907 30.8118 11.748C30.8114 11.4053 30.6668 11.153 30.3781 10.991C30.1074 10.8289 29.7916 10.73 29.4309 10.6943C29.0882 10.6405 28.7906 10.6137 28.5381 10.614C27.5281 10.6149 26.5454 10.7511 25.5898 11.0225C24.6343 11.2759 23.6788 11.5564 22.7233 11.8639C22.6512 11.882 22.579 11.9001 22.5069 11.9182C22.4348 11.9363 22.3627 11.9454 22.2905 11.9455C22.0741 11.9457 21.9117 11.8737 21.8033 11.7295C21.695 11.5853 21.6407 11.414 21.6404 11.2157C21.6399 10.7648 21.8289 10.458 22.2074 10.2953C22.3336 10.2411 22.4598 10.2049 22.586 10.1868C22.7303 10.1506 22.8655 10.1234 22.9917 10.1052C23.8571 9.88798 24.7316 9.68877 25.6151 9.50759C26.5166 9.32638 27.4093 9.23536 28.293 9.23452C28.7799 9.23406 29.312 9.29668 29.8893 9.42238C30.4846 9.53002 30.9898 9.74597 31.405 10.0702C31.8382 10.3944 32.0552 10.8721 32.0559 11.5034C32.0566 12.0805 31.8408 12.6127 31.4086 13.1001C30.9763 13.5694 30.4357 13.9847 29.7869 14.346C29.1381 14.7073 28.4892 15.0145 27.8402 15.2676C27.2093 15.5207 26.6685 15.7106 26.2178 15.8373C25.7851 15.9639 25.5687 16.0363 25.5688 16.0543L25.6499 16.0542C25.7942 16.0541 25.9385 16.054 26.0828 16.0538C26.245 16.0356 26.3983 16.0265 26.5426 16.0263C26.9754 16.0259 27.4444 16.0706 27.9495 16.1603C28.4726 16.2319 28.9597 16.3667 29.4108 16.5647C29.8799 16.7626 30.259 17.0418 30.548 17.4022C30.855 17.7446 31.0088 18.1953 31.0095 18.7544C31.0099 19.1331 30.9382 19.5029 30.7944 19.8638C30.6505 20.2066 30.4705 20.5314 30.2545 20.8382C29.7504 21.56 29.1199 22.1558 28.3629 22.6254C27.606 23.095 26.7949 23.4475 25.9295 23.6828C25.0641 23.918 24.1985 24.0361 23.3329 24.0369Z" fill="black"/>
</g>
<defs>
<clipPath id="clip0_103_2">
<rect x="0.693359" y="1.00354" width="33" height="33" rx="16.5" transform="rotate(-0.0607075 0.693359 1.00354)" fill="white"/>
</clipPath>
</defs>
</svg>
