<svg width="34" height="35" viewBox="0 0 34 35" fill="none" xmlns="http://www.w3.org/2000/svg">
<g clip-path="url(#clip0_103_2)">
<rect x="17" y="-1" width="26.3408" height="50.397" fill="white"/>
<rect x="-2" y="-6" width="38" height="50" fill="white"/>
<path d="M8.33286 24.0369C7.53933 24.0376 6.7096 23.9392 5.84369 23.7417C4.99581 23.5441 4.27397 23.166 3.67815 22.6075C3.64204 22.5715 3.62396 22.5354 3.62392 22.4994C3.62383 22.4272 3.66888 22.3911 3.75905 22.391L3.86729 22.418C4.40856 22.5978 4.95877 22.7235 5.51794 22.7952C6.07711 22.8668 6.63623 22.9023 7.19532 22.9018C7.79047 22.9012 8.48471 22.8104 9.27803 22.6293C10.0713 22.4301 10.8375 22.1409 11.5765 21.7614C12.3335 21.382 12.9551 20.9125 13.4414 20.3529C13.9277 19.7934 14.1704 19.1439 14.1695 18.4045C14.1689 17.8454 13.979 17.4308 13.5999 17.1606C13.2209 16.8724 12.7698 16.6744 12.2466 16.5667C11.7415 16.459 11.2725 16.4053 10.8397 16.4057C10.3708 16.4062 9.82079 16.4608 9.18969 16.5696C8.55858 16.6604 7.9546 16.8233 7.37776 17.0583C6.8009 17.2752 6.35038 17.5732 6.0262 17.9523C5.39589 18.7284 4.84682 19.5675 4.37898 20.4697C3.92916 21.3539 3.44324 22.22 2.92123 23.0681C2.8493 23.2486 2.7412 23.3388 2.59692 23.339C2.50675 23.3391 2.4616 23.285 2.46147 23.1768C2.46138 23.1046 2.47035 23.0595 2.48836 23.0415C2.63206 22.5544 2.82087 22.0853 3.05479 21.6342C3.30673 21.1651 3.54966 20.714 3.78361 20.2809C3.87359 20.1185 4.04457 19.8208 4.29654 19.3877C4.56653 18.9366 4.88152 18.4133 5.24152 17.8178C5.60149 17.2042 5.97949 16.5817 6.37551 15.9501C6.78954 15.3004 7.17658 14.6959 7.53661 14.1365C7.89665 13.577 8.20271 13.1259 8.45479 12.783C8.72491 12.4401 8.89604 12.2686 8.96818 12.2685C9.05835 12.2684 9.20267 12.3043 9.40114 12.3763C9.61763 12.4302 9.82511 12.5021 10.0236 12.5921C10.2221 12.6641 10.3484 12.7361 10.4026 12.8082C9.86227 13.4219 9.32195 14.0356 8.78163 14.6493C8.24129 15.2449 7.70997 15.8496 7.18769 16.4633C8.0352 16.3543 8.9187 16.1731 9.83818 15.9197C10.7576 15.6483 11.6049 15.341 12.38 14.9976C12.6504 14.8711 12.9748 14.6994 13.3533 14.4826C13.7317 14.2478 14.1102 13.986 14.4886 13.697C14.8669 13.3901 15.1822 13.0742 15.4343 12.7493C15.6864 12.4244 15.8122 12.0907 15.8118 11.748C15.8114 11.4053 15.6668 11.153 15.3781 10.991C15.1074 10.8289 14.7916 10.73 14.4309 10.6943C14.0882 10.6405 13.7906 10.6137 13.5381 10.614C12.5281 10.6149 11.5454 10.7511 10.5898 11.0225C9.63429 11.2759 8.67877 11.5564 7.72329 11.8639C7.65117 11.882 7.57905 11.9001 7.50693 11.9182C7.43481 11.9363 7.36268 11.9454 7.29054 11.9455C7.07412 11.9457 6.91172 11.8737 6.80334 11.7295C6.69496 11.5853 6.64066 11.414 6.64042 11.2157C6.63989 10.7648 6.82889 10.458 7.20743 10.2953C7.33361 10.2411 7.45981 10.2049 7.58604 10.1868C7.73027 10.1506 7.8655 10.1234 7.99173 10.1052C8.85715 9.88798 9.73161 9.68877 10.6151 9.50759C11.5166 9.32638 12.4093 9.23536 13.293 9.23452C13.7799 9.23406 14.312 9.29668 14.8893 9.42238C15.4846 9.53002 15.9898 9.74597 16.405 10.0702C16.8382 10.3944 17.0552 10.8721 17.0559 11.5034C17.0566 12.0805 16.8408 12.6127 16.4086 13.1001C15.9763 13.5694 15.4357 13.9847 14.7869 14.346C14.1381 14.7073 13.4892 15.0145 12.8402 15.2676C12.2093 15.5207 11.6685 15.7106 11.2178 15.8373C10.7851 15.9639 10.5687 16.0363 10.5688 16.0543L10.6499 16.0542C10.7942 16.0541 10.9385 16.054 11.0828 16.0538C11.245 16.0356 11.3983 16.0265 11.5426 16.0263C11.9754 16.0259 12.4444 16.0706 12.9495 16.1603C13.4726 16.2319 13.9597 16.3667 14.4108 16.5647C14.8799 16.7626 15.259 17.0418 15.548 17.4022C15.855 17.7446 16.0088 18.1953 16.0095 18.7544C16.0099 19.1331 15.9382 19.5029 15.7944 19.8638C15.6505 20.2066 15.4705 20.5314 15.2545 20.8382C14.7504 21.56 14.1199 22.1558 13.3629 22.6254C12.606 23.095 11.7949 23.4475 10.9295 23.6828C10.0641 23.918 9.19854 24.0361 8.33286 24.0369Z" fill="black"/>
<path d="M22.3329 24.0369C21.5393 24.0376 20.7096 23.9392 19.8437 23.7417C18.9958 23.5441 18.274 23.166 17.6782 22.6075C17.642 22.5715 17.624 22.5354 17.6239 22.4994C17.6238 22.4272 17.6689 22.3911 17.7591 22.391L17.8673 22.418C18.4086 22.5978 18.9588 22.7235 19.5179 22.7952C20.0771 22.8668 20.6362 22.9023 21.1953 22.9018C21.7905 22.9012 22.4847 22.8104 23.278 22.6293C24.0713 22.4301 24.8375 22.1409 25.5765 21.7614C26.3335 21.382 26.9551 20.9125 27.4414 20.3529C27.9277 19.7934 28.1704 19.1439 28.1695 18.4045C28.1689 17.8454 27.979 17.4308 27.5999 17.1606C27.2209 16.8724 26.7698 16.6744 26.2466 16.5667C25.7415 16.459 25.2725 16.4053 24.8397 16.4057C24.3708 16.4062 23.8208 16.4608 23.1897 16.5696C22.5586 16.6604 21.9546 16.8233 21.3778 17.0583C20.8009 17.2752 20.3504 17.5732 20.0262 17.9523C19.3959 18.7284 18.8468 19.5675 18.379 20.4697C17.9292 21.3539 17.4432 22.22 16.9212 23.0681C16.8493 23.2486 16.7412 23.3388 16.5969 23.339C16.5067 23.3391 16.4616 23.285 16.4615 23.1768C16.4614 23.1046 16.4703 23.0595 16.4884 23.0415C16.6321 22.5544 16.8209 22.0853 17.0548 21.6342C17.3067 21.1651 17.5497 20.714 17.7836 20.2809C17.8736 20.1185 18.0446 19.8208 18.2965 19.3877C18.5665 18.9366 18.8815 18.4133 19.2415 17.8178C19.6015 17.2042 19.9795 16.5817 20.3755 15.9501C20.7895 15.3004 21.1766 14.6959 21.5366 14.1365C21.8966 13.577 22.2027 13.1259 22.4548 12.783C22.7249 12.4401 22.896 12.2686 22.9682 12.2685C23.0584 12.2684 23.2027 12.3043 23.4011 12.3763C23.6176 12.4302 23.8251 12.5021 24.0236 12.5921C24.2221 12.6641 24.3484 12.7361 24.4026 12.8082C23.8623 13.4219 23.322 14.0356 22.7816 14.6493C22.2413 15.2449 21.71 15.8496 21.1877 16.4633C22.0352 16.3543 22.9187 16.1731 23.8382 15.9197C24.7576 15.6483 25.6049 15.341 26.38 14.9976C26.6504 14.8711 26.9748 14.6994 27.3533 14.4826C27.7317 14.2478 28.1102 13.986 28.4886 13.697C28.8669 13.3901 29.1822 13.0742 29.4343 12.7493C29.6864 12.4244 29.8122 12.0907 29.8118 11.748C29.8114 11.4053 29.6668 11.153 29.3781 10.991C29.1074 10.8289 28.7916 10.73 28.4309 10.6943C28.0882 10.6405 27.7906 10.6137 27.5381 10.614C26.5281 10.6149 25.5454 10.7511 24.5898 11.0225C23.6343 11.2759 22.6788 11.5564 21.7233 11.8639C21.6512 11.882 21.579 11.9001 21.5069 11.9182C21.4348 11.9363 21.3627 11.9454 21.2905 11.9455C21.0741 11.9457 20.9117 11.8737 20.8033 11.7295C20.695 11.5853 20.6407 11.414 20.6404 11.2157C20.6399 10.7648 20.8289 10.458 21.2074 10.2953C21.3336 10.2411 21.4598 10.2049 21.586 10.1868C21.7303 10.1506 21.8655 10.1234 21.9917 10.1052C22.8571 9.88798 23.7316 9.68877 24.6151 9.50759C25.5166 9.32638 26.4093 9.23536 27.293 9.23452C27.7799 9.23406 28.312 9.29668 28.8893 9.42238C29.4846 9.53002 29.9898 9.74597 30.405 10.0702C30.8382 10.3944 31.0552 10.8721 31.0559 11.5034C31.0566 12.0805 30.8408 12.6127 30.4086 13.1001C29.9763 13.5694 29.4357 13.9847 28.7869 14.346C28.1381 14.7073 27.4892 15.0145 26.8402 15.2676C26.2093 15.5207 25.6685 15.7106 25.2178 15.8373C24.7851 15.9639 24.5687 16.0363 24.5688 16.0543L24.6499 16.0542C24.7942 16.0541 24.9385 16.054 25.0828 16.0538C25.245 16.0356 25.3983 16.0265 25.5426 16.0263C25.9754 16.0259 26.4444 16.0706 26.9495 16.1603C27.4726 16.2319 27.9597 16.3667 28.4108 16.5647C28.8799 16.7626 29.259 17.0418 29.548 17.4022C29.855 17.7446 30.0088 18.1953 30.0095 18.7544C30.0099 19.1331 29.9382 19.5029 29.7944 19.8638C29.6505 20.2066 29.4705 20.5314 29.2545 20.8382C28.7504 21.56 28.1199 22.1558 27.3629 22.6254C26.606 23.095 25.7949 23.4475 24.9295 23.6828C24.0641 23.918 23.1985 24.0361 22.3329 24.0369Z" fill="black"/>
</g>
<defs>
<clipPath id="clip0_103_2">
<rect x="0.693359" y="1.00354" width="33" height="33" rx="16.5" transform="rotate(-0.0607075 0.693359 1.00354)" fill="white"/>
</clipPath>
</defs>
</svg>
