<svg width="36" height="36" viewBox="0 0 36 36" fill="none" xmlns="http://www.w3.org/2000/svg">
<g clip-path="url(#clip0_330_22)">
<path d="M18 36C27.9411 36 36 27.9411 36 18C36 8.05887 27.9411 0 18 0C8.05887 0 0 8.05887 0 18C0 27.9411 8.05887 36 18 36Z" fill="#24BECA"/>
<path d="M25.6501 24.2437C24.6939 25.5375 23.4564 26.8875 21.8251 27.9C20.2501 28.9125 18.4501 29.7 16.3126 29.7C14.3439 29.7 12.7126 28.6875 11.8126 27.8437C10.4626 26.55 9.73137 24.6937 9.50637 22.95C8.83137 17.55 12.1501 10.4062 17.2689 7.31249C18.4501 6.58124 19.7439 6.24374 20.9814 6.24374C23.4564 6.24374 25.3126 7.98749 25.5376 10.125C25.7626 12.0375 25.0314 13.6687 22.8939 14.7375C21.8251 15.3 21.2626 15.2437 21.0939 15.0187C20.9814 14.85 21.0376 14.5687 21.2626 14.4C23.2314 12.7687 23.2876 11.4187 23.0626 9.50624C22.8939 8.26874 22.1064 7.48124 21.2064 7.48124C17.3251 7.48124 11.7001 16.2 12.4876 22.5C12.7689 24.975 14.2876 27.8437 17.4376 27.8437C18.4501 27.8437 19.5751 27.5625 20.5314 27.0562C22.7251 25.9312 23.6814 25.1437 24.9751 23.3437C25.1439 23.1187 25.3126 22.8375 25.4814 22.6125C25.5939 22.3875 25.8189 22.3312 25.9876 22.3312C26.1564 22.3312 26.3814 22.5 26.3814 22.7812C26.3814 22.95 26.3251 23.2875 26.1001 23.5687C26.0439 23.6812 25.8751 24.0187 25.6501 24.2437Z" fill="white"/>
</g>
<defs>
<clipPath id="clip0_330_22">
<rect width="36" height="36" fill="white"/>
</clipPath>
</defs>
</svg>
