<svg width="36" height="36" viewBox="0 0 36 36" fill="none" xmlns="http://www.w3.org/2000/svg">
<path d="M36 27.8944C34.6905 28.2274 33.8805 27.909 33.1537 26.8177L27.9855 19.6672L27.2385 18.6772L21.2029 26.8414C20.5133 27.8235 19.7899 28.251 18.5029 27.9034L26.2316 17.5286L19.0361 8.15737C20.2736 7.91662 21.1286 8.03924 21.888 9.14737L27.2486 16.3867L32.6486 9.18674C33.3405 8.20462 34.0841 7.83112 35.3261 8.19337L32.5361 11.8924L28.7561 16.8142C28.3061 17.3767 28.368 17.7615 28.782 18.3049L36 27.8944ZM0.009 17.3554L0.64125 14.2459C2.3625 8.09212 9.41625 5.53499 14.2808 9.33749C17.1236 11.574 17.8301 14.7375 17.6895 18.2812H1.665C1.42425 24.66 6.01538 28.5097 11.8688 26.5455C13.9219 25.8559 15.1312 24.2482 15.7365 22.2367C16.0436 21.2287 16.5521 21.0712 17.4994 21.3592C17.0156 23.8747 15.9244 25.9762 13.6181 27.2914C10.1722 29.2601 5.25375 28.6234 2.66625 25.8874C1.125 24.3 0.48825 22.2885 0.2025 20.1375C0.1575 19.782 0.0675 19.4434 0 19.1025C0.006 18.5205 0.009 17.9385 0.009 17.3565V17.3554ZM1.69425 16.9279H16.1753C16.0808 12.3154 13.2086 9.03937 9.2835 9.01124C4.97475 8.97749 1.881 12.1759 1.69425 16.9279Z" fill="black"/>
</svg>
