<svg width="25" height="38" viewBox="0 0 25 38" fill="none" xmlns="http://www.w3.org/2000/svg">
<g clip-path="url(#clip0_330_16)">
<path d="M6.25119 37.4925C9.7005 37.4925 12.4999 34.6931 12.4999 31.2437V24.995H6.25119C2.80188 24.995 0.00244141 27.7944 0.00244141 31.2437C0.00244141 34.6931 2.80188 37.4925 6.25119 37.4925Z" fill="#0ACF83"/>
<path d="M0.00244141 18.7462C0.00244141 15.2969 2.80188 12.4975 6.25119 12.4975H12.4999V24.995H6.25119C2.80188 24.995 0.00244141 22.1956 0.00244141 18.7462Z" fill="#A259FF"/>
<path d="M0.00244141 6.24875C0.00244141 2.79944 2.80188 0 6.25119 0H12.4999V12.4975H6.25119C2.80188 12.4975 0.00244141 9.69806 0.00244141 6.24875Z" fill="#F24E1E"/>
<path d="M12.5 0H18.7488C22.1981 0 24.9975 2.79944 24.9975 6.24875C24.9975 9.69806 22.1981 12.4975 18.7488 12.4975H12.5V0Z" fill="#FF7262"/>
<path d="M24.9975 18.7462C24.9975 22.1956 22.1981 24.995 18.7488 24.995C15.2994 24.995 12.5 22.1956 12.5 18.7462C12.5 15.2969 15.2994 12.4975 18.7488 12.4975C22.1981 12.4975 24.9975 15.2969 24.9975 18.7462Z" fill="#1ABCFE"/>
</g>
<defs>
<clipPath id="clip0_330_16">
<rect width="25" height="37.4925" fill="white"/>
</clipPath>
</defs>
</svg>
