<svg width="36" height="36" viewBox="0 0 36 36" fill="none" xmlns="http://www.w3.org/2000/svg">
<path d="M1.0673 15.4601L11.4791 5.03027L14.5234 8.09257C14.0911 9.62372 14.7936 11.299 16.1986 12.1096V22.0891C15.1178 22.7015 14.3973 23.8724 14.3973 25.2054C14.3973 27.1951 16.0103 28.8081 18 28.8081C19.9897 28.8081 21.6027 27.1951 21.6027 25.2054C21.6027 23.8724 20.8822 22.7015 19.8014 22.0891V13.3345L23.5301 17.0993C23.4041 17.3695 23.4041 17.6758 23.4041 18C23.4041 19.9897 25.017 21.6027 27.0068 21.6027C28.9965 21.6027 30.6095 19.9897 30.6095 18C30.6095 16.0103 28.9965 14.3973 27.0068 14.3973C26.6825 14.3973 26.3763 14.3973 26.1061 14.5234L21.4766 9.89392C21.945 8.21866 21.0803 6.38129 19.4051 5.67876C18.6305 5.39054 17.8199 5.31849 17.0993 5.51664L14.037 2.47235L15.4601 1.0673C16.8651 -0.355767 19.1349 -0.355767 20.5399 1.0673L34.9327 15.4601C36.3558 16.8651 36.3558 19.1349 34.9327 20.5399L20.5399 34.9327C19.1349 36.3558 16.8651 36.3558 15.4601 34.9327L1.0673 20.5399C-0.355767 19.1349 -0.355767 16.8651 1.0673 15.4601Z" fill="#E64A19"/>
</svg>
