<svg width="35" height="36" viewBox="0 0 35 36" fill="none" xmlns="http://www.w3.org/2000/svg">
<g clip-path="url(#clip0_332_88)">
<path d="M11.6648 27.9422C11.6648 28.0828 11.5031 28.1953 11.2992 28.1953C11.0672 28.2164 10.9055 28.1039 10.9055 27.9422C10.9055 27.8016 11.0672 27.6891 11.2711 27.6891C11.482 27.668 11.6648 27.7805 11.6648 27.9422ZM9.47813 27.6258C9.42891 27.7664 9.56953 27.9281 9.78047 27.9703C9.96328 28.0406 10.1742 27.9703 10.2164 27.8297C10.2586 27.6891 10.125 27.5273 9.91406 27.4641C9.73125 27.4148 9.52734 27.4852 9.47813 27.6258ZM12.5859 27.5063C12.382 27.5555 12.2414 27.6891 12.2625 27.8508C12.2836 27.9914 12.4664 28.0828 12.6773 28.0336C12.8813 27.9844 13.0219 27.8508 13.0008 27.7102C12.9797 27.5766 12.7898 27.4852 12.5859 27.5063ZM17.2125 0.5625C7.46016 0.5625 0 7.96641 0 17.7188C0 25.5164 4.90781 32.1891 11.918 34.5375C12.818 34.6992 13.1344 34.1438 13.1344 33.6867C13.1344 33.2508 13.1133 30.8461 13.1133 29.3695C13.1133 29.3695 8.19141 30.4242 7.15781 27.2742C7.15781 27.2742 6.35625 25.2281 5.20312 24.7008C5.20312 24.7008 3.59297 23.5969 5.31562 23.618C5.31562 23.618 7.06641 23.7586 8.02969 25.432C9.56953 28.1461 12.15 27.3656 13.1555 26.9016C13.3172 25.7766 13.7742 24.9961 14.2805 24.532C10.35 24.0961 6.38438 23.5266 6.38438 16.7625C6.38438 14.8289 6.91875 13.8586 8.04375 12.6211C7.86094 12.1641 7.26328 10.2797 8.22656 7.84688C9.69609 7.38984 13.0781 9.74531 13.0781 9.74531C14.4844 9.35156 15.9961 9.14766 17.4937 9.14766C18.9914 9.14766 20.5031 9.35156 21.9094 9.74531C21.9094 9.74531 25.2914 7.38281 26.7609 7.84688C27.7242 10.2867 27.1266 12.1641 26.9438 12.6211C28.0688 13.8656 28.7578 14.8359 28.7578 16.7625C28.7578 23.5477 24.6164 24.0891 20.6859 24.532C21.3328 25.0875 21.8813 26.1422 21.8813 27.7945C21.8813 30.1641 21.8602 33.0961 21.8602 33.6727C21.8602 34.1297 22.1836 34.6852 23.0766 34.5234C30.1078 32.1891 34.875 25.5164 34.875 17.7188C34.875 7.96641 26.9648 0.5625 17.2125 0.5625ZM6.83437 24.8133C6.74297 24.8836 6.76406 25.0453 6.88359 25.1789C6.99609 25.2914 7.15781 25.3406 7.24922 25.2492C7.34062 25.1789 7.31953 25.0172 7.2 24.8836C7.0875 24.7711 6.92578 24.7219 6.83437 24.8133ZM6.075 24.2438C6.02578 24.3352 6.09609 24.4477 6.23672 24.518C6.34922 24.5883 6.48984 24.5672 6.53906 24.4688C6.58828 24.3773 6.51797 24.2648 6.37734 24.1945C6.23672 24.1523 6.12422 24.1734 6.075 24.2438ZM8.35313 26.7469C8.24063 26.8383 8.28281 27.0492 8.44453 27.1828C8.60625 27.3445 8.81016 27.3656 8.90156 27.2531C8.99297 27.1617 8.95078 26.9508 8.81016 26.8172C8.65547 26.6555 8.44453 26.6344 8.35313 26.7469ZM7.55156 25.7133C7.43906 25.7836 7.43906 25.9664 7.55156 26.1281C7.66406 26.2898 7.85391 26.3602 7.94531 26.2898C8.05781 26.1984 8.05781 26.0156 7.94531 25.8539C7.84688 25.6922 7.66406 25.6219 7.55156 25.7133Z" fill="black"/>
</g>
<defs>
<clipPath id="clip0_332_88">
<rect width="34.875" height="36" fill="white"/>
</clipPath>
</defs>
</svg>
