<svg width="32" height="36" viewBox="0 0 32 36" fill="none" xmlns="http://www.w3.org/2000/svg">
<path d="M0.266605 1.19174L2.60308 31.0827C2.63815 31.5315 2.94198 31.9143 3.37118 32.0504L15.6657 35.9483C15.8832 36.0172 16.1166 36.0172 16.334 35.9483L28.6286 32.0504C29.0578 31.9143 29.3616 31.5315 29.3967 31.0827L31.7331 1.19174C31.7834 0.549104 31.2755 0 30.6309 0H1.36888C0.72433 0 0.216438 0.549104 0.266605 1.19174ZM25.7414 10.4659H10.5142L10.9737 14.7036H25.4102L24.4658 26.7846L15.9999 29.4687L7.53399 26.7846L7.04061 20.473H11.4842V23.5689L16.1187 24.8128L20.7254 23.5689L21.0828 18.6349H6.8969L5.95508 6.58552H26.0447L25.7414 10.4659Z" fill="#FC490B"/>
</svg>
