<svg width="36" height="36" viewBox="0 0 36 36" fill="none" xmlns="http://www.w3.org/2000/svg">
<g clip-path="url(#clip0_330_25)">
<path d="M36 0H0V36H36V0Z" fill="#F7DF1E"/>
<path d="M9.46826 30.0825L12.2203 28.4154C12.7526 29.3625 13.2363 30.1514 14.3901 30.1514C15.5046 30.1514 16.2049 29.7176 16.2049 28.0209V16.5305H19.5876V28.08C19.5876 31.5815 17.5359 33.1791 14.5378 33.1791C11.8357 33.1791 10.2677 31.7784 9.46826 30.0825Z" fill="black"/>
<path d="M21.4326 29.7176L24.1846 28.1201C24.9145 29.3034 25.8518 30.1718 27.5182 30.1718C28.9188 30.1718 29.816 29.4715 29.816 28.5047C29.816 27.341 28.8984 26.9367 27.3501 26.2561L26.5021 25.8912C24.0658 24.8555 22.4388 23.5434 22.4388 20.7921C22.4388 18.2574 24.3717 16.3245 27.3902 16.3245C29.5404 16.3245 31.0886 17.074 32.2031 19.0273L29.5699 20.7141C28.9877 19.6784 28.3668 19.2642 27.4 19.2642C26.4136 19.2642 25.7829 19.8956 25.7829 20.7141C25.7829 21.7301 26.4143 22.1442 27.8641 22.7658L28.7121 23.1307C31.5921 24.3633 33.2093 25.6163 33.2093 28.447C33.2093 31.4944 30.8123 33.1615 27.6068 33.1615C24.4504 33.1791 22.4184 31.68 21.4326 29.7176Z" fill="black"/>
</g>
<defs>
<clipPath id="clip0_330_25">
<rect width="36" height="36" fill="white"/>
</clipPath>
</defs>
</svg>
