<svg width="133" height="36" viewBox="0 0 133 36" fill="none" xmlns="http://www.w3.org/2000/svg">
<g clip-path="url(#clip0_332_90)">
<mask id="mask0_332_90" style="mask-type:luminance" maskUnits="userSpaceOnUse" x="5" y="4" width="6" height="32">
<path d="M8.67056 35.0991L7.72913 34.7874C7.72913 34.7874 7.84919 30.0226 6.13079 29.689C4.99766 28.376 6.30521 -26.3956 10.4217 29.5013C10.4217 29.5013 9.01277 30.2088 8.74606 31.4102C8.47945 32.6124 8.67056 35.0991 8.67056 35.0991Z" fill="white"/>
</mask>
<g mask="url(#mask0_332_90)">
<path d="M8.67056 35.0991L7.72913 34.7874C7.72913 34.7874 7.84919 30.0226 6.13079 29.689C4.99766 28.376 6.30521 -26.3956 10.4217 29.5013C10.4217 29.5013 9.01277 30.2088 8.74606 31.4102C8.47945 32.6124 8.67056 35.0991 8.67056 35.0991Z" fill="url(#paint0_linear_332_90)"/>
</g>
<mask id="mask1_332_90" style="mask-type:luminance" maskUnits="userSpaceOnUse" x="7" y="0" width="9" height="31">
<path d="M9.17807 30.4979C9.17807 30.4979 17.3585 25.11 15.442 13.9205C13.5964 5.79111 9.23881 3.11861 8.77056 2.09835C8.25505 1.37627 7.73584 0.0964623 7.73584 0.0964623L8.08381 22.7473C8.08381 22.7473 7.36406 29.6636 9.17807 30.4979Z" fill="white"/>
</mask>
<g mask="url(#mask1_332_90)">
<path d="M9.17807 30.4979C9.17807 30.4979 17.3585 25.11 15.442 13.9205C13.5964 5.79111 9.23881 3.11861 8.77056 2.09835C8.25505 1.37627 7.73584 0.0964623 7.73584 0.0964623L8.08381 22.7473C8.08381 22.7473 7.36406 29.6636 9.17807 30.4979Z" fill="url(#paint1_linear_332_90)"/>
</g>
<mask id="mask2_332_90" style="mask-type:luminance" maskUnits="userSpaceOnUse" x="0" y="0" width="9" height="31">
<path d="M7.2504 30.799C7.2504 30.799 -0.423157 25.5642 0.0183463 16.3279C0.45997 7.09128 5.87974 2.54989 6.93533 1.72601C7.61778 0.99859 7.646 0.718306 7.69879 0.000631124C8.17709 1.02813 8.09756 15.3477 8.14824 17.0215C8.34488 23.5368 7.7874 29.5691 7.2504 30.799Z" fill="white"/>
</mask>
<g mask="url(#mask2_332_90)">
<path d="M7.2504 30.799C7.2504 30.799 -0.423157 25.5642 0.0183463 16.3279C0.45997 7.09128 5.87974 2.54989 6.93533 1.72601C7.61778 0.99859 7.646 0.718306 7.69879 0.000631124C8.17709 1.02813 8.09756 15.3477 8.14824 17.0215C8.34488 23.5368 7.7874 29.5691 7.2504 30.799Z" fill="url(#paint2_linear_332_90)"/>
</g>
<path d="M99.9724 27.8176C100.515 28.2516 101.6 28.4303 102.557 28.4303C103.798 28.4303 105.012 28.2002 106.201 27.1286C107.416 26.0306 108.243 24.3461 108.243 21.666C108.243 19.0879 107.261 16.9948 105.245 15.7696C104.107 15.055 102.635 14.7744 100.955 14.7744C100.463 14.7744 99.9724 14.7998 99.688 14.9274C99.6104 14.9784 99.4552 15.1827 99.4552 15.285C99.4036 15.7443 99.4036 19.2411 99.4036 21.3086C99.4036 23.4271 99.4036 26.388 99.4552 26.7456C99.4816 27.0518 99.6362 27.5878 99.9724 27.8176ZM94.8135 13.6257C95.2528 13.6257 96.9223 13.7022 97.6981 13.7022C99.1453 13.7022 100.153 13.6257 102.867 13.6257C105.141 13.6257 107.054 14.2383 108.424 15.4123C110.078 16.8419 110.957 18.8327 110.957 21.2575C110.957 24.7035 109.38 26.6944 107.804 27.8176C106.227 28.9915 104.185 29.6552 101.265 29.6552C99.7138 29.6552 97.0514 29.6042 94.8286 29.579H94.7981C94.6951 29.3744 94.9886 28.5785 95.1705 28.5578C95.7713 28.4898 95.934 28.4667 96.2131 28.3519C96.6822 28.1588 96.7931 27.9197 96.8453 27.0772C96.9223 25.4949 96.8968 23.606 96.8968 21.4617C96.8968 19.9304 96.9223 16.9439 96.8707 15.9994C96.7931 15.2082 96.4578 15.0042 95.7854 14.8508C95.4492 14.7744 94.9842 14.6977 94.3381 14.6211C94.2863 14.4681 94.6844 13.7786 94.8135 13.6257Z" fill="#C0BDBA"/>
<path d="M117.801 14.8765C117.698 14.9021 117.569 15.1574 117.569 15.285C117.543 16.2036 117.517 18.603 117.517 20.262C117.517 20.313 117.594 20.3896 117.647 20.3896C117.982 20.4154 118.809 20.4409 119.507 20.4409C120.489 20.4409 121.058 20.313 121.368 20.1598C122.195 19.7517 122.583 18.8583 122.583 17.8884C122.583 15.6677 121.032 14.8252 118.732 14.8252C118.577 14.8252 118.137 14.8252 117.801 14.8765ZM123.668 25.0864C123.668 22.8403 122.014 21.5641 118.99 21.5641C118.861 21.5641 117.904 21.5384 117.672 21.5897C117.594 21.6149 117.517 21.666 117.517 21.717C117.517 23.3253 117.491 25.9033 117.569 26.924C117.62 27.358 117.931 27.9707 118.318 28.1493C118.732 28.3792 119.662 28.4303 120.308 28.4303C122.092 28.4303 123.668 27.4346 123.668 25.0864ZM113.133 13.6257C113.366 13.6257 114.054 13.7022 115.811 13.7022C117.466 13.7022 118.809 13.6513 120.412 13.6513C122.402 13.6513 125.141 14.3659 125.141 17.3268C125.141 18.7817 124.108 19.9559 122.764 20.5175C122.686 20.543 122.686 20.5941 122.764 20.6196C124.677 21.1043 126.356 22.2786 126.356 24.5248C126.356 26.7199 124.987 28.0984 122.996 28.9663C121.782 29.5021 120.283 29.6808 118.757 29.6808C117.594 29.6808 114.478 29.5531 112.746 29.579C112.565 29.5021 112.912 28.6852 113.066 28.5578C113.48 28.5324 113.799 28.5026 114.239 28.3749C114.859 28.2217 114.932 28.0218 115.01 27.1028C115.062 26.3118 115.062 23.4784 115.062 21.4617C115.062 18.7051 115.088 16.8419 115.062 15.923C115.036 15.2082 114.777 14.9784 114.286 14.8508C113.899 14.7744 113.253 14.6977 112.736 14.6211C112.606 14.4935 113.004 13.7278 113.133 13.6257Z" fill="#C0BDBA"/>
<path d="M20.6701 29.6441C20.6271 29.5753 20.5815 29.3723 20.5911 29.1281C20.5982 28.9424 20.635 28.8244 20.6699 28.784C21.1573 28.7071 21.3881 28.6551 21.662 28.5819C22.119 28.4686 22.2912 28.2217 22.3181 27.6374C22.3931 26.2607 22.3975 23.6793 22.37 21.8639L22.3704 21.8103C22.3724 21.6157 22.3755 21.3493 22.1309 21.1615C21.7725 20.9254 21.3256 20.7301 20.7601 20.5605C20.5437 20.4964 20.424 20.3826 20.4304 20.2496C20.4372 20.1217 20.5729 19.959 20.8551 19.9047C21.6035 19.8275 23.5659 19.3603 24.3358 19.0051C24.3814 19.0604 24.4533 19.1805 24.4394 19.3718C24.4337 19.4524 24.4265 19.5366 24.4195 19.6238C24.3976 19.8803 24.373 20.1711 24.373 20.4611C24.373 20.5465 24.4655 20.6274 24.5637 20.6274C24.6137 20.6274 24.6599 20.6079 24.6974 20.5708C26.1649 19.4223 27.4774 19.0123 28.1531 19.0123C29.2634 19.0123 30.1274 19.5423 30.7952 20.6319C30.8344 20.6896 30.8869 20.72 30.9457 20.72C31.0017 20.72 31.0546 20.6912 31.0856 20.6449C32.4351 19.6226 33.7724 19.0123 34.6664 19.0123C36.7823 19.0123 38.0461 20.5945 38.0461 23.2436C38.0461 24.0048 38.0382 24.9697 38.0316 25.8705C38.025 26.6607 38.0197 27.4016 38.0197 27.9142C38.0197 28.0385 38.1859 28.3832 38.437 28.4521C38.7462 28.6026 39.1933 28.6794 39.7576 28.7768L39.7793 28.7803C39.8224 28.932 39.7325 29.5228 39.6464 29.6437C39.5066 29.6426 39.3124 29.6325 39.0708 29.6204C38.6315 29.5978 38.0294 29.5675 37.3284 29.5675C35.9226 29.5675 35.188 29.5951 34.4863 29.6404C34.4335 29.4651 34.415 28.8998 34.4794 28.7819C34.8885 28.7054 35.0909 28.6537 35.3366 28.581C35.784 28.4336 35.9129 28.231 35.939 27.6374C35.9493 27.2149 36.0304 23.4998 35.8865 22.6176C35.7539 21.7034 35.0639 20.6334 33.5553 20.6334C32.9957 20.6334 32.0913 20.8658 31.2294 21.5187C31.1758 21.5706 31.145 21.6715 31.145 21.7378L31.1466 21.7548C31.2481 22.231 31.2481 22.7863 31.2481 23.6266C31.2481 24.1054 31.2451 24.6135 31.2424 25.118C31.2365 26.1422 31.231 27.1095 31.2481 27.8401C31.2481 28.3382 31.5496 28.457 31.7922 28.553C31.9239 28.5823 32.0285 28.6074 32.1331 28.6323C32.3364 28.6813 32.5463 28.7317 32.8577 28.7816C32.9001 28.8798 32.9039 29.173 32.8455 29.4238C32.8128 29.5623 32.7754 29.6233 32.7556 29.6432C31.9738 29.6165 31.1715 29.593 30.0142 29.593C29.6634 29.593 29.0905 29.6081 28.5851 29.6216C28.1756 29.6325 27.7876 29.6432 27.5671 29.6441C27.5352 29.5936 27.4905 29.432 27.4905 29.1991C27.4905 28.9828 27.5303 28.8302 27.5712 28.7832C27.6798 28.7631 27.7833 28.7448 27.882 28.7272C28.1535 28.6788 28.3879 28.6376 28.6129 28.5823C28.996 28.4655 29.1397 28.2528 29.1677 27.7663C29.2424 26.6303 29.3008 23.3581 29.1399 22.5386C28.8661 21.2235 28.1165 20.5571 26.9126 20.5571C26.2068 20.5571 25.3159 20.8963 24.5874 21.4418C24.4653 21.5317 24.373 21.7582 24.373 21.9672C24.373 22.3568 24.3718 22.8209 24.3702 23.3183C24.3653 24.9619 24.3595 27.0074 24.3995 27.8927C24.4241 28.1647 24.5188 28.4886 25.0325 28.608C25.1444 28.6393 25.3386 28.6718 25.5636 28.7089C25.6931 28.7305 25.8348 28.754 25.9803 28.7801C26.0326 28.9208 26.0006 29.4724 25.911 29.6441C25.6865 29.6426 25.4101 29.6297 25.093 29.6158C24.6087 29.5945 24.0065 29.5675 23.32 29.5675C22.5122 29.5675 21.9497 29.5945 21.498 29.6158C21.1951 29.6301 20.9323 29.6429 20.6701 29.6441Z" fill="#414044"/>
<path d="M46.3108 20.0976C45.8404 20.0976 45.4011 20.2207 45.0743 20.4443C44.1769 20.9896 43.7201 22.0781 43.7201 23.6772C43.7201 26.6719 45.2214 28.763 47.3703 28.763C48.0044 28.763 48.5213 28.581 48.9509 28.2063C49.6113 27.6681 49.9614 26.5689 49.9614 25.0298C49.9614 22.0796 48.4943 20.0976 46.3108 20.0976ZM46.7246 29.8738C42.8415 29.8738 41.458 27.0287 41.458 24.3666C41.458 22.5069 42.2194 21.0528 43.7216 20.0451C44.7893 19.3895 46.0641 19.0123 47.2157 19.0123C50.1791 19.0123 52.2492 21.1405 52.2492 24.1881C52.2492 26.2601 51.4219 27.8954 49.8574 28.9175C49.107 29.3772 47.8052 29.8738 46.7246 29.8738Z" fill="#414044"/>
<path d="M86.5224 20.0976C86.0513 20.0976 85.6118 20.2207 85.2853 20.4443C84.3882 20.9896 83.9313 22.0778 83.9313 23.6772C83.9313 26.6719 85.432 28.763 87.5816 28.763C88.2157 28.763 88.7326 28.581 89.1621 28.206C89.8223 27.6681 90.1726 26.5691 90.1726 25.0302C90.1726 22.0799 88.7056 20.0976 86.5224 20.0976ZM86.9359 29.8738C83.0524 29.8738 81.6689 27.0289 81.6689 24.3668C81.6689 22.5066 82.4309 21.0524 83.9332 20.0447C85.0006 19.3893 86.2754 19.0123 87.4267 19.0123C90.3904 19.0123 92.4605 21.1409 92.4605 24.1878C92.4605 26.2603 91.6331 27.8956 90.0686 28.9171C89.3183 29.3772 88.0168 29.8738 86.9359 29.8738Z" fill="#414044"/>
<path d="M73.528 19.9957C72.3312 19.9957 71.5576 20.94 71.5576 22.4012C71.5576 23.8759 72.2228 25.5979 74.0971 25.5979C74.4188 25.5979 75.0023 25.455 75.2914 25.1366C75.7269 24.737 76.0113 23.9112 76.0113 23.0391C76.0113 21.1333 75.0828 19.9957 73.528 19.9957ZM73.3734 30.0777C72.9238 30.0777 72.5967 30.2085 72.4012 30.3181C71.4539 30.9247 71.0146 31.5306 71.0146 32.2282C71.0146 32.886 71.2704 33.4087 71.8196 33.8734C72.4848 34.4364 73.3819 34.7105 74.5621 34.7105C76.8829 34.7105 77.9236 33.4637 77.9236 32.2282C77.9236 31.3684 77.4916 30.792 76.603 30.4661C75.918 30.2161 74.7739 30.0777 73.3734 30.0777ZM73.528 36C72.1342 36 71.1296 35.7062 70.2715 35.0467C69.4369 34.4031 69.063 33.4488 69.063 32.7893C69.063 32.5998 69.1079 32.1097 69.5202 31.6414C69.7634 31.3657 70.3258 30.8496 71.6254 29.9568C71.6653 29.9418 71.693 29.9024 71.693 29.8547C71.693 29.8014 71.6587 29.7583 71.6116 29.7483C70.5404 29.3386 70.2174 28.6664 70.12 28.3016C70.1185 28.2886 70.1141 28.2677 70.1093 28.2454C70.0785 28.1023 70.05 27.9671 70.2435 27.8282C70.3934 27.7213 70.6344 27.5787 70.8895 27.4283C71.266 27.2062 71.6927 26.9544 71.929 26.7521C71.9664 26.7157 71.9815 26.6622 71.9727 26.6087C71.9635 26.5545 71.9321 26.5102 71.8859 26.4874C70.3007 25.9553 69.5026 24.7792 69.5026 22.9881C69.5026 21.8317 70.0364 20.7866 70.9668 20.1201C71.6044 19.6168 73.2047 19.0117 74.2413 19.0117L74.3016 19.0123C75.3684 19.0376 75.9695 19.2606 76.8016 19.5685C77.2534 19.7356 77.6811 19.8034 78.2793 19.8034C79.1623 19.8034 79.5478 19.5239 79.8787 19.203C79.8976 19.2427 79.9428 19.3689 79.9629 19.6594C79.984 19.9557 79.9029 20.3948 79.676 20.7081C79.4954 20.9579 79.0771 21.1391 78.6822 21.1391C78.6426 21.1391 78.6036 21.1372 78.5662 21.1333C78.1596 21.0934 77.9686 21.0342 77.9667 21.0333L77.8671 21.068C77.8357 21.1138 77.8561 21.1648 77.8818 21.2293C77.8881 21.2447 77.8944 21.2595 77.8966 21.2692C77.9485 21.4758 78.0405 22.079 78.0405 22.248C78.0405 24.1263 77.2987 24.9456 76.4968 25.5514C75.7316 26.1281 74.8374 26.475 73.8294 26.5813H73.8284C73.808 26.5813 73.7125 26.5899 73.5199 26.6068C73.3957 26.6181 73.2412 26.6321 73.2182 26.6321L73.1956 26.6351C73.0203 26.6846 72.5659 26.9004 72.5659 27.3022C72.5659 27.6365 72.772 28.0507 73.7546 28.1248C73.9538 28.1398 74.1675 28.1546 74.3906 28.1698C75.688 28.26 77.3081 28.3725 78.0707 28.6309C79.1196 29.0126 79.7722 29.9509 79.7722 31.0797C79.7722 32.7654 78.5722 34.3504 76.5628 35.3188C75.5881 35.7772 74.5983 36 73.528 36Z" fill="#414044"/>
<path d="M67.1522 28.7451C66.5838 28.6685 66.1699 28.5919 65.6791 28.3623C65.6015 28.3112 65.4978 28.0814 65.4978 28.0049C65.446 27.2135 65.446 24.9163 65.446 23.4105C65.446 22.1852 65.2395 21.1133 64.7227 20.3471C64.1024 19.4795 63.2238 18.969 62.0864 18.969C61.0787 18.969 59.7344 19.6582 58.6234 20.6027C58.5973 20.6282 58.4267 20.79 58.4304 20.5386C58.4342 20.2876 58.4732 19.7766 58.4964 19.4549C58.52 19.1334 58.3271 18.9818 58.3271 18.9818C57.6034 19.3391 55.5654 19.8229 54.8128 19.9007C54.2626 20.0065 54.1241 20.5348 54.7098 20.7172V20.7173C54.7098 20.7182 54.7154 20.7192 54.7186 20.7202C55.3316 20.9044 55.7445 21.1013 56.0527 21.3044C56.2856 21.4831 56.2595 21.7384 56.2595 21.9427C56.2853 23.6527 56.2853 26.2821 56.2076 27.7113C56.1819 28.2729 56.0267 28.4768 55.6131 28.5792L55.6509 28.5665C55.3407 28.6427 55.0821 28.694 54.6947 28.7451C54.5652 28.8725 54.5652 29.6128 54.6944 29.7662C54.953 29.7662 56.2714 29.6894 57.3567 29.6894C58.8556 29.6894 59.6311 29.7662 60.0188 29.7662C60.1737 29.5872 60.2256 28.898 60.1222 28.7451C59.6826 28.7196 59.3725 28.6685 59.0623 28.5919C58.6488 28.4898 58.5454 28.2857 58.52 27.8261C58.4681 26.6266 58.4681 24.0742 58.4681 22.3383C58.4681 21.8533 58.5973 21.6235 58.7525 21.4959C59.2691 21.0363 60.1222 20.7305 60.8719 20.7305C61.5952 20.7305 62.0864 20.9601 62.4483 21.2661C62.9395 21.6746 63.1201 22.2616 63.172 22.6957C63.2754 23.6658 63.2493 25.6055 63.2493 27.2901C63.2493 28.2091 63.172 28.4389 62.8361 28.5409C62.6809 28.6176 62.2674 28.694 61.7762 28.7451C61.6213 28.898 61.6728 29.6128 61.7762 29.7662C62.4483 29.7662 63.2238 29.6894 64.3607 29.6894C65.7825 29.6894 66.6868 29.7662 67.0488 29.7662C67.2037 29.5872 67.2553 28.9235 67.1522 28.7451Z" fill="#414044"/>
<path d="M129.992 27.4857H130.43C130.783 27.4857 130.918 27.3623 130.918 27.0427C130.918 26.7177 130.789 26.6108 130.391 26.6108H129.992V27.4857ZM130.923 28.8596L130.408 27.7491H129.992V28.8596H129.69V26.3359H130.436C130.991 26.3359 131.221 26.5829 131.221 27.0427C131.221 27.4125 131.047 27.6482 130.722 27.7158L131.254 28.8596H130.923ZM130.436 25.7812C129.42 25.7812 128.613 26.5829 128.613 27.6034C128.613 28.607 129.42 29.4148 130.43 29.4148C131.434 29.4148 132.241 28.607 132.241 27.6034C132.241 26.5774 131.456 25.7812 130.436 25.7812ZM130.43 29.5943C129.308 29.5943 128.434 28.7193 128.434 27.598C128.434 26.4706 129.308 25.6017 130.436 25.6017C131.535 25.6017 132.426 26.482 132.426 27.5696C132.426 28.7079 131.552 29.5943 130.43 29.5943Z" fill="#C0BDBA"/>
</g>
<defs>
<linearGradient id="paint0_linear_332_90" x1="2.44328" y1="17.9012" x2="13.259" y2="21.5692" gradientUnits="userSpaceOnUse">
<stop stop-color="#929669"/>
<stop offset="0.230769" stop-color="#929669"/>
<stop offset="1" stop-color="#FDFCF1"/>
</linearGradient>
<linearGradient id="paint1_linear_332_90" x1="6.40773" y1="0.309503" x2="11.1959" y2="30.1742" gradientUnits="userSpaceOnUse">
<stop stop-color="#45AA3A"/>
<stop offset="1" stop-color="#3D9439"/>
</linearGradient>
<linearGradient id="paint2_linear_332_90" x1="-0.788109" y1="17.2771" x2="12.0459" y2="12.982" gradientUnits="userSpaceOnUse">
<stop stop-color="#41A83B"/>
<stop offset="1" stop-color="#5EBC44"/>
</linearGradient>
<clipPath id="clip0_332_90">
<rect width="132.427" height="36" fill="white"/>
</clipPath>
</defs>
</svg>
