<svg width="36" height="36" viewBox="0 0 36 36" fill="none" xmlns="http://www.w3.org/2000/svg">
<path d="M8.49375 12.9094H15.2719V13.4437H9.1125V17.4937H14.9062V18.0281H9.1125V22.4719H15.3562V23.0062H8.49375V12.9094ZM15.8906 12.9094H16.6219L19.8281 17.3531L23.0625 12.9094L27.5063 7.28436L20.1938 17.8312L23.9625 23.0062H23.2031L19.8 18.2812L16.3688 23.0062H15.6375L19.4344 17.8312L15.8906 12.9094ZM24.2437 13.4437V12.9094H31.9781V13.4437H28.4062V23.0062H27.7875V13.4437H24.2437ZM0 12.9094H0.759375L11.5031 28.8844L7.05938 23.0062L0.646875 13.6687L0.61875 23.0062H0V12.9094ZM31.9219 22.3031C32.0625 22.3031 32.1469 22.2187 32.1469 22.0781C32.1469 21.9375 32.0625 21.8531 31.9219 21.8531C31.7812 21.8531 31.6969 21.9375 31.6969 22.0781C31.6969 22.2187 31.8094 22.3031 31.9219 22.3031ZM32.5406 21.7125C32.5406 22.0781 32.8219 22.3312 33.2156 22.3312C33.6375 22.3312 33.8906 22.0781 33.8906 21.6281V20.0812H33.5531V21.6281C33.5531 21.8812 33.4406 21.9937 33.2156 21.9937C33.0187 21.9937 32.8781 21.8812 32.8781 21.6844H32.5406V21.7125ZM34.3125 21.6844C34.3406 22.0781 34.65 22.3312 35.1562 22.3312C35.6625 22.3312 36 22.0781 36 21.6562C36 21.3187 35.8031 21.15 35.3813 21.0375L35.1281 20.9812C34.8469 20.925 34.7344 20.8125 34.7344 20.6719C34.7344 20.475 34.9031 20.3344 35.1844 20.3344C35.4375 20.3344 35.6062 20.4469 35.6344 20.6719H35.9719C35.9438 20.3062 35.6344 20.0531 35.1844 20.0531C34.7062 20.0531 34.3969 20.3062 34.3969 20.7C34.3969 21.0094 34.5656 21.2062 34.9594 21.2906L35.2406 21.3469C35.5219 21.4031 35.6625 21.5156 35.6625 21.6844C35.6625 21.8812 35.4656 22.0219 35.1844 22.0219C34.9031 22.0219 34.6781 21.8812 34.65 21.6844H34.3125Z" fill="black"/>
</svg>
