<svg width="128" height="36" viewBox="0 0 128 36" fill="none" xmlns="http://www.w3.org/2000/svg">
<g clip-path="url(#clip0_332_73)">
<path d="M116.95 12.8138C116.641 12.8138 116.341 12.8776 116.075 13.028L107.662 17.8868C107.117 18.2006 106.786 18.793 106.786 19.4234V29.1232C106.786 29.7531 107.117 30.3448 107.662 30.6593L109.859 31.9278C110.926 32.4539 111.32 32.4457 111.806 32.4457C113.386 32.4457 114.289 31.4866 114.289 29.8199V20.2449C114.289 20.1096 114.172 20.0128 114.039 20.0128H112.985C112.85 20.0128 112.735 20.1096 112.735 20.2449V29.8199C112.735 30.5585 111.965 31.3016 110.716 30.6772L108.43 29.3375C108.349 29.2936 108.287 29.2158 108.287 29.1232V19.4231C108.287 19.3312 108.348 19.2376 108.43 19.191L116.825 14.3503C116.863 14.3282 116.906 14.3165 116.95 14.3165C116.994 14.3165 117.037 14.3282 117.075 14.3503L125.471 19.1912C125.551 19.2394 125.614 19.3285 125.614 19.4236V29.1235C125.614 29.2161 125.568 29.3109 125.489 29.3556L117.075 34.1965C117.003 34.2395 116.904 34.2395 116.825 34.1965L114.664 32.9104C114.631 32.8926 114.594 32.8833 114.557 32.8833C114.519 32.8833 114.483 32.8926 114.45 32.9104C113.853 33.2486 113.741 33.2878 113.181 33.482C113.043 33.5301 112.834 33.6049 113.253 33.8395L116.075 35.5005C116.341 35.654 116.643 35.7342 116.951 35.7328C117.258 35.7348 117.56 35.6546 117.826 35.5007L126.24 30.6596C126.784 30.343 127.115 29.7534 127.115 29.1235V19.4234C127.115 18.7932 126.784 18.2018 126.24 17.8873L117.826 13.0285C117.562 12.8778 117.26 12.814 116.951 12.814L116.95 12.8138Z" fill="#83CD29"/>
<path d="M119.201 19.7449C116.805 19.7449 115.379 20.7645 115.379 22.4603C115.379 24.2995 116.795 24.805 119.094 25.0324C121.845 25.3018 122.059 25.7057 122.059 26.2472C122.059 27.1864 121.311 27.5869 119.541 27.5869C117.317 27.5869 116.828 27.0318 116.665 25.9257C116.645 25.807 116.554 25.7112 116.432 25.7112H115.343C115.209 25.7112 115.093 25.8269 115.093 25.9615C115.093 27.3774 115.863 29.0517 119.541 29.0517C122.203 29.0517 123.739 28.0067 123.739 26.1757C123.739 24.3608 122.498 23.8735 119.916 23.5321C117.306 23.1867 117.058 23.0176 117.058 22.4066C117.058 21.9021 117.269 21.2273 119.201 21.2273C120.928 21.2273 121.566 21.5997 121.827 22.7639C121.85 22.8731 121.946 22.9603 122.059 22.9603H123.149C123.216 22.9603 123.281 22.9191 123.328 22.8709C123.374 22.8195 123.406 22.7617 123.399 22.6924C123.231 20.6878 121.894 19.7449 119.201 19.7449Z" fill="#83CD29"/>
<path d="M67.4867 0.095086C67.3927 0.0951484 67.3002 0.119706 67.2186 0.166341C67.1374 0.213829 67.07 0.281641 67.0231 0.363095C66.9761 0.44455 66.9511 0.536837 66.9507 0.630865V14.2965C66.9507 14.4305 66.8884 14.5507 66.7722 14.618C66.7152 14.6512 66.6505 14.6686 66.5846 14.6686C66.5187 14.6686 66.454 14.6512 66.397 14.618L64.164 13.3319C64.0012 13.2377 63.8163 13.1881 63.6281 13.1881C63.44 13.1881 63.2551 13.2377 63.0922 13.3319L54.1784 18.4764C53.8452 18.6689 53.6426 19.0385 53.6426 19.4234V29.7127C53.6426 30.097 53.8454 30.449 54.1784 30.6415L63.0922 35.7862C63.255 35.8807 63.4399 35.9305 63.6281 35.9305C63.8164 35.9305 64.0012 35.8807 64.164 35.7862L73.0779 30.6415C73.2411 30.5475 73.3766 30.4122 73.4707 30.2491C73.5648 30.086 73.6142 29.901 73.6139 29.7127V4.0608C73.6137 3.86809 73.5623 3.67889 73.465 3.51253C73.3677 3.34617 73.2281 3.2086 73.0603 3.11387L67.7546 0.148465C67.6714 0.102038 67.5791 0.0938447 67.4867 0.095086ZM10.1449 12.9389C9.9751 12.9456 9.81521 12.9754 9.66277 13.0638L0.748674 18.2085C0.585386 18.3024 0.449817 18.4377 0.35572 18.6008C0.261624 18.7639 0.212349 18.949 0.212895 19.1373L0.230771 32.9462C0.230771 33.1381 0.329833 33.3166 0.498661 33.4105C0.579601 33.4591 0.672248 33.4848 0.766674 33.4848C0.861101 33.4848 0.953748 33.4591 1.03469 33.4105L6.32222 30.3738C6.65714 30.1747 6.87587 29.8286 6.87587 29.4448V22.9961C6.87587 22.6112 7.07822 22.2582 7.4119 22.067L9.66252 20.7631C9.82525 20.6684 10.0103 20.6191 10.1985 20.6201C10.3823 20.6201 10.571 20.666 10.7343 20.7631L12.9852 22.067C13.1486 22.1607 13.2843 22.2961 13.3785 22.4592C13.4726 22.6224 13.5219 22.8077 13.5212 22.9961V29.4445C13.5212 29.8284 13.7422 30.1769 14.0749 30.3736L19.3624 33.4105C19.4434 33.4591 19.536 33.4848 19.6304 33.4848C19.7249 33.4848 19.8175 33.4591 19.8984 33.4105C19.9799 33.3633 20.0476 33.2956 20.0946 33.2141C20.1417 33.1325 20.1665 33.0401 20.1666 32.946L20.184 19.1373C20.185 18.9489 20.136 18.7636 20.0418 18.6004C19.9477 18.4372 19.8118 18.302 19.6482 18.2085L10.7343 13.0638C10.5836 12.9754 10.4232 12.9458 10.2522 12.9389H10.1449ZM90.2447 13.0638C90.0585 13.0638 89.876 13.1109 89.7089 13.2068L80.795 18.3516C80.6318 18.4454 80.4963 18.5808 80.4021 18.7439C80.308 18.907 80.2586 19.092 80.259 19.2804V29.5697C80.259 29.9567 80.477 30.3073 80.8127 30.4987L89.6553 35.5362C89.9817 35.7224 90.3805 35.7366 90.7092 35.5536L96.0682 32.5706C96.2383 32.4762 96.3532 32.2999 96.354 32.1063C96.3549 32.012 96.3305 31.9192 96.2834 31.8375C96.2363 31.7558 96.1682 31.6882 96.0861 31.6418L87.1186 26.497C86.9508 26.4012 86.8329 26.2073 86.8329 26.0146V22.7994C86.8329 22.607 86.952 22.4307 87.1186 22.3349L89.9053 20.7271C89.9867 20.6799 90.0792 20.6551 90.1733 20.6551C90.2674 20.6551 90.3598 20.6799 90.4413 20.7271L93.2277 22.3349C93.3093 22.3818 93.3771 22.4494 93.4242 22.531C93.4713 22.6125 93.496 22.705 93.4958 22.7992V25.3358C93.4956 25.4299 93.5202 25.5225 93.5673 25.604C93.6143 25.6855 93.6821 25.7532 93.7637 25.8001C93.9308 25.8967 94.1329 25.8969 94.2995 25.8001L99.6409 22.6924C99.8039 22.5981 99.9392 22.4627 100.033 22.2996C100.127 22.1365 100.177 21.9516 100.177 21.7634V19.2806C100.177 18.897 99.9734 18.5442 99.6409 18.3516L90.7807 13.2068C90.6178 13.1126 90.4328 13.0631 90.2447 13.0638ZM63.5923 20.7452C63.6389 20.7452 63.6936 20.7566 63.7353 20.7807L66.79 22.5492C66.873 22.5971 66.9331 22.6857 66.9331 22.7813V26.3182C66.9331 26.4143 66.8735 26.5027 66.79 26.5506L63.7353 28.3191C63.6945 28.3424 63.6483 28.3546 63.6013 28.3546C63.5543 28.3546 63.5082 28.3424 63.4674 28.3191L60.4128 26.5506C60.3297 26.5025 60.2698 26.4143 60.2698 26.3182V22.7813C60.2698 22.6855 60.3299 22.5976 60.4128 22.5492L63.4674 20.7809C63.5049 20.7576 63.5483 20.7453 63.5925 20.7454L63.5923 20.7452Z" fill="#404137"/>
<path d="M36.9222 13.0102C36.7365 13.0102 36.5527 13.0573 36.3864 13.1532L27.4726 18.2801C27.1391 18.472 26.9365 18.8424 26.9365 19.2267V29.516C26.9365 29.9009 27.1394 30.2524 27.4726 30.4451L36.3864 35.5896C36.5492 35.6842 36.7341 35.734 36.9223 35.734C37.1105 35.734 37.2954 35.6842 37.4582 35.5896L46.3721 30.4451C46.5352 30.3511 46.6707 30.2157 46.7648 30.0526C46.8589 29.8894 46.9082 29.7044 46.9078 29.516V19.2267C46.9078 18.8419 46.7052 18.472 46.3721 18.2801L37.4582 13.1532C37.2953 13.0591 37.1103 13.0097 36.9222 13.0102ZM90.2268 22.1922C90.1913 22.1922 90.1518 22.1922 90.1197 22.21L88.4049 23.2103C88.3729 23.2281 88.3462 23.254 88.3273 23.2853C88.3085 23.3167 88.2983 23.3525 88.2977 23.3891V25.3539C88.2977 25.4279 88.3404 25.4957 88.4049 25.5327L90.1197 26.5151C90.1841 26.5524 90.2526 26.5524 90.3161 26.5151L92.031 25.5325C92.0628 25.5146 92.0895 25.4887 92.1083 25.4574C92.1271 25.4261 92.1374 25.3905 92.1382 25.3539V23.3888C92.1374 23.3523 92.1271 23.3167 92.1083 23.2854C92.0895 23.2541 92.0628 23.2282 92.031 23.2103L90.3161 22.2098C90.2844 22.1912 90.2625 22.1922 90.2268 22.1922Z" fill="#83CD29"/>
</g>
<defs>
<clipPath id="clip0_332_73">
<rect width="127.119" height="36" fill="white"/>
</clipPath>
</defs>
</svg>
