<svg width="36" height="36" viewBox="0 0 36 36" fill="none" xmlns="http://www.w3.org/2000/svg">
<path d="M31.2423 9.15459C29.5379 6.94756 27.2173 5.29553 24.574 4.40744C21.9307 3.51935 19.0833 3.43509 16.3921 4.16532C13.7009 4.89556 11.2867 6.40748 9.45479 8.50987C7.6229 10.6123 6.45562 13.2107 6.10059 15.9765C5.74555 18.7424 6.21871 21.5514 7.46021 24.0483C8.70172 26.5452 10.6558 28.6178 13.0753 30.0041C15.4949 31.3904 18.2712 32.028 21.0531 31.8363C23.835 31.6446 26.4976 30.6323 28.7042 28.9273C34.8633 24.1674 36.0004 15.3159 31.2423 9.15459Z" fill="#FF6C37"/>
<path d="M24.8393 12.6562L18.8947 18.6479L17.2148 16.9209C23.0656 11.0702 23.6524 11.5989 24.8393 12.6562Z" fill="white"/>
<path d="M18.8946 18.8118C18.8419 18.8105 18.7917 18.7896 18.7536 18.7532L17.0618 17.0615C17.0237 17.022 17.0024 16.9693 17.0024 16.9145C17.0024 16.8597 17.0237 16.807 17.0618 16.7676C22.8302 10.9992 23.6175 11.2693 24.9801 12.5029C25.003 12.5212 25.0212 12.5445 25.0334 12.571C25.0457 12.5975 25.0516 12.6266 25.0506 12.6558C25.0594 12.713 25.0374 12.7716 24.992 12.8086L19.0475 18.7537C19.0058 18.7919 18.9511 18.8124 18.8946 18.8118ZM17.5081 16.9205L18.8946 18.3069L24.5338 12.6677C24.3391 12.4237 24.0613 12.26 23.7535 12.208C23.4457 12.1559 23.1295 12.2192 22.8654 12.3857C21.8433 12.8439 20.1987 14.2418 17.5081 16.9205Z" fill="#FF6C37"/>
<path d="M20.5983 20.3045L18.9771 18.6479L24.9216 12.7734C26.5196 14.3361 24.1462 16.9447 20.5983 20.3045Z" fill="white"/>
<path d="M20.5984 20.516C20.5464 20.5118 20.497 20.4913 20.4574 20.4574L18.8009 18.8361C18.776 18.7758 18.776 18.7082 18.8009 18.6479C18.7832 18.5985 18.7832 18.5445 18.8009 18.4951L24.7454 12.5505C24.7868 12.5116 24.8414 12.49 24.8981 12.49C24.9548 12.49 25.0094 12.5116 25.0508 12.5505C25.2433 12.7277 25.3954 12.9442 25.4967 13.1855C25.598 13.4267 25.6462 13.6869 25.638 13.9484C25.638 15.5345 23.8286 17.5315 20.7508 20.4455C20.7097 20.4862 20.656 20.5111 20.5984 20.516ZM19.2824 18.6479L20.6098 19.9749C22.9594 17.7545 25.2036 15.4635 25.2151 13.9127C25.2279 13.584 25.1192 13.262 24.9098 13.0082L19.2824 18.6479Z" fill="#FF6C37"/>
<path d="M17.2613 16.9562L18.4363 18.1311C18.4438 18.1378 18.4498 18.1459 18.4539 18.155C18.458 18.1641 18.4602 18.174 18.4602 18.184C18.4602 18.194 18.458 18.2039 18.4539 18.213C18.4498 18.2221 18.4438 18.2303 18.4363 18.2369L15.9572 18.7656C15.9072 18.7764 15.855 18.7705 15.8086 18.7489C15.7621 18.7273 15.7241 18.6911 15.7001 18.6459C15.6762 18.6006 15.6677 18.5488 15.6759 18.4983C15.6841 18.4477 15.7087 18.4013 15.7457 18.366L17.1908 16.9328C17.1908 16.9328 17.2379 16.9328 17.2613 16.9562Z" fill="white"/>
<path d="M15.8987 19.0004C15.8204 18.9994 15.7436 18.9783 15.6758 18.9392C15.6079 18.9001 15.5512 18.8443 15.511 18.777C15.4658 18.6918 15.4495 18.5943 15.4643 18.499C15.4792 18.4037 15.5245 18.3158 15.5934 18.2483L17.0266 16.8033C17.0783 16.7571 17.1452 16.7315 17.2145 16.7315C17.2838 16.7315 17.3507 16.7571 17.4024 16.8033L18.5774 17.9783C18.647 18.0444 18.6743 18.1444 18.6479 18.2369C18.6214 18.3294 18.5439 18.403 18.4483 18.425L15.9692 18.9537L15.8987 19.0004ZM17.2147 17.2148L15.8873 18.5422L18.0844 18.0721L17.2147 17.2148Z" fill="#FF6C37"/>
<path d="M27.9995 9.3546C27.1492 8.53426 25.8134 8.4999 24.9217 9.27398C24.03 10.0481 23.8776 11.3768 24.5719 12.3328C25.2663 13.2889 26.5752 13.5567 27.5885 12.9496L25.9906 11.3517L27.9995 9.3546Z" fill="white"/>
<path d="M26.4135 13.4898C25.9249 13.4835 25.4491 13.3336 25.0451 13.0588C24.6412 12.784 24.3271 12.3964 24.1419 11.9442C23.9568 11.4925 23.9083 10.9964 24.0023 10.5173C24.0962 10.0382 24.3286 9.59724 24.6706 9.24885C25.1409 8.78712 25.7737 8.52844 26.4328 8.52844C27.092 8.52844 27.7247 8.78712 28.1951 9.24885C28.24 9.28674 28.2656 9.34269 28.2656 9.40173C28.2655 9.43078 28.2591 9.45946 28.247 9.48583C28.2348 9.51221 28.2171 9.53566 28.1951 9.55461L26.2919 11.3521L27.7369 12.7738C27.7603 12.7962 27.7779 12.8239 27.7881 12.8547C27.7983 12.8854 27.8009 12.9181 27.7955 12.9501C27.792 12.9809 27.7818 13.0105 27.7656 13.0369C27.7494 13.0634 27.7276 13.0859 27.7017 13.1029C27.3135 13.3456 26.8672 13.4795 26.4095 13.4906L26.4135 13.4898ZM26.4135 8.9312C25.5764 8.93561 24.8274 9.43918 24.5133 10.2089C24.1992 10.9785 24.3701 11.8645 24.9569 12.4557C25.2488 12.7493 25.6226 12.9479 26.0292 13.0255C26.4359 13.1031 26.8565 13.0561 27.236 12.8906L25.8495 11.5041C25.8275 11.4865 25.8097 11.4641 25.7975 11.4387C25.7852 11.4133 25.7789 11.3854 25.7789 11.3572C25.7789 11.329 25.7852 11.3011 25.7975 11.2757C25.8097 11.2502 25.8275 11.2279 25.8495 11.2103L27.6823 9.3656C27.318 9.08639 26.8725 8.93415 26.4135 8.9312Z" fill="#FF6C37"/>
<path d="M28.0349 9.38983L26.0259 11.3869L27.6238 12.9849C27.7846 12.8925 27.9344 12.7821 28.0701 12.6558C28.4889 12.2131 28.7193 11.625 28.7128 11.0157C28.7062 10.4063 28.4631 9.82336 28.0349 9.38983Z" fill="white"/>
<path d="M27.5884 13.1611C27.562 13.1625 27.5356 13.158 27.5112 13.1479C27.4868 13.1377 27.465 13.1222 27.4474 13.1025L25.8494 11.5046C25.8274 11.487 25.8096 11.4646 25.7974 11.4392C25.7852 11.4137 25.7788 11.3859 25.7788 11.3577C25.7788 11.3294 25.7852 11.3016 25.7974 11.2761C25.8096 11.2507 25.8274 11.2283 25.8494 11.2107L27.8465 9.24887C27.8658 9.21979 27.892 9.19594 27.9228 9.17943C27.9535 9.16293 27.9879 9.1543 28.0228 9.1543C28.0577 9.1543 28.092 9.16293 28.1228 9.17943C28.1535 9.19594 28.1797 9.21979 28.199 9.24887C28.4334 9.47859 28.6197 9.75278 28.7469 10.0554C28.874 10.358 28.9395 10.6829 28.9395 11.0111C28.9395 11.3394 28.874 11.6643 28.7469 11.9669C28.6197 12.2695 28.4334 12.5437 28.199 12.7734C28.0607 12.9201 27.9025 13.0466 27.7289 13.1492C27.6852 13.1712 27.6351 13.1755 27.5884 13.1611ZM26.2962 11.3521L27.6236 12.6796C27.7149 12.6156 27.8014 12.5449 27.8822 12.4681C28.2725 12.0789 28.4922 11.5508 28.4933 10.9997C28.4942 10.5065 28.3144 10.03 27.988 9.66036L26.2962 11.3521Z" fill="#FF6C37"/>
<path d="M25.086 12.9029C24.9268 12.7535 24.7168 12.6703 24.4985 12.6703C24.2802 12.6703 24.0701 12.7535 23.911 12.9029L18.5894 18.2126L19.4705 19.1057L25.0979 14.1713C25.1837 14.0891 25.2518 13.9901 25.2979 13.8806C25.344 13.771 25.3673 13.6532 25.3661 13.5343C25.365 13.4155 25.3396 13.2981 25.2914 13.1894C25.2432 13.0808 25.1733 12.9836 25.086 12.9029Z" fill="white"/>
<path d="M19.423 19.3176C19.3703 19.3163 19.3201 19.2954 19.282 19.259L18.389 18.366C18.3509 18.3266 18.3296 18.2739 18.3296 18.2191C18.3296 18.1642 18.3509 18.1116 18.389 18.0721L23.711 12.7734C23.8643 12.6203 24.0601 12.5168 24.2729 12.4763C24.4857 12.4358 24.7058 12.4601 24.9047 12.5462C25.1035 12.6323 25.2718 12.7762 25.3879 12.9591C25.504 13.142 25.5625 13.3556 25.5557 13.5722C25.5496 13.7192 25.5142 13.8634 25.4517 13.9966C25.3891 14.1297 25.3006 14.2491 25.1913 14.3476L19.564 19.2819C19.523 19.3109 19.4727 19.3239 19.423 19.3176ZM18.8005 18.2127L19.3877 18.8118L24.9094 14.0066C25.0459 13.8876 25.1275 13.7176 25.1327 13.5365C25.138 13.3554 25.0667 13.1783 24.9332 13.0549C24.8099 12.9322 24.643 12.8633 24.469 12.8633C24.295 12.8633 24.1282 12.9322 24.0049 13.0549L18.8005 18.2127Z" fill="#FF6C37"/>
<path d="M14.4654 24.2634C14.4504 24.2838 14.4423 24.3085 14.4423 24.3339C14.4423 24.3593 14.4504 24.384 14.4654 24.4044L14.7003 25.4265C14.7097 25.4866 14.7008 25.5482 14.6747 25.6032C14.6486 25.6583 14.6065 25.7041 14.554 25.7349C14.5017 25.7655 14.4409 25.7787 14.3806 25.7726C14.3203 25.7665 14.2634 25.7414 14.2183 25.701L12.6089 24.1502L17.6256 19.0938H19.3646L20.5395 20.2688C18.7067 21.8713 16.663 23.2153 14.4654 24.2634Z" fill="white"/>
<path d="M14.3599 25.9904C14.2269 25.9878 14.0956 25.9332 14.0075 25.8376L12.4686 24.2987C12.4465 24.281 12.4288 24.2587 12.4165 24.2332C12.4043 24.2078 12.3979 24.18 12.3979 24.1517C12.3979 24.1235 12.4043 24.0956 12.4165 24.0702C12.4288 24.0448 12.4465 24.0224 12.4686 24.0048L17.5201 18.9414C17.5484 18.9113 17.5854 18.8908 17.6259 18.8828H19.3763C19.4219 18.8666 19.4716 18.8666 19.5172 18.8828L20.6922 20.0578C20.7146 20.0784 20.7316 20.1041 20.7418 20.1327C20.752 20.1613 20.7551 20.192 20.7508 20.2221C20.7517 20.2513 20.7457 20.2803 20.7335 20.3068C20.7213 20.3333 20.7031 20.3566 20.6803 20.375L20.5865 20.4574C18.7462 21.9915 16.7216 23.29 14.5595 24.3225L14.7829 25.2741C14.8002 25.3475 14.8008 25.4238 14.7848 25.4975C14.7688 25.5712 14.7366 25.6404 14.6904 25.7001C14.6443 25.7597 14.5854 25.8083 14.5181 25.8423C14.4508 25.8763 14.3767 25.8949 14.3014 25.8966L14.3599 25.9904ZM12.9268 24.1458L14.3128 25.5437C14.3257 25.5552 14.3424 25.5616 14.3597 25.5616C14.377 25.5616 14.3937 25.5552 14.4066 25.5437C14.4153 25.5317 14.4199 25.5173 14.4199 25.5025C14.4199 25.4877 14.4153 25.4733 14.4066 25.4613L14.1718 24.4392C14.1533 24.3658 14.1608 24.2883 14.1929 24.2199C14.225 24.1514 14.2798 24.0961 14.3481 24.0634C16.452 23.0447 18.4244 21.7743 20.2221 20.2802L19.2586 19.3167H17.6845L12.9268 24.1458Z" fill="#FF6C37"/>
<path d="M11.3993 25.356L12.5743 24.181L14.3837 25.9904L11.5055 25.7909C11.456 25.787 11.4091 25.7676 11.3714 25.7355C11.3336 25.7034 11.307 25.6601 11.2952 25.612C11.2835 25.5638 11.2873 25.5132 11.3061 25.4673C11.3248 25.4214 11.3576 25.3826 11.3997 25.3565L11.3993 25.356Z" fill="white"/>
<path d="M14.4184 26.1667L11.5516 25.9671C11.3815 25.9512 11.2353 25.8349 11.1754 25.6794C11.1154 25.5239 11.152 25.3393 11.2696 25.215L12.4446 24.04C12.4841 24.0019 12.5367 23.9807 12.5916 23.9807C12.6464 23.9807 12.6991 24.0019 12.7385 24.04L14.536 25.8375C14.5609 25.8716 14.5743 25.9128 14.5743 25.955C14.5743 25.9972 14.5609 26.0383 14.536 26.0724C14.5088 26.1163 14.4673 26.1499 14.4184 26.1667ZM11.5516 25.5089L13.9012 25.6618L12.609 24.4515L11.5516 25.5089Z" fill="#FF6C37"/>
<path d="M19.5291 19.2357L17.1558 19.6L18.5303 18.2373L19.5291 19.2357Z" fill="white"/>
<path d="M17.1558 19.8225C17.1164 19.8235 17.0775 19.8129 17.0441 19.792C17.0106 19.7711 16.984 19.7408 16.9677 19.7049C16.9427 19.6708 16.9292 19.6297 16.9292 19.5875C16.9292 19.5452 16.9427 19.5041 16.9677 19.47L18.3304 18.0955C18.3717 18.0566 18.4263 18.035 18.483 18.035C18.5398 18.035 18.5944 18.0566 18.6357 18.0955L19.6349 19.0938C19.6549 19.1255 19.6655 19.1621 19.6655 19.1995C19.6655 19.237 19.6549 19.2736 19.6349 19.3053C19.6251 19.3439 19.6044 19.3788 19.5752 19.4059C19.5461 19.433 19.5098 19.4512 19.4706 19.4581L17.121 19.8225H17.1558ZM18.5304 18.5418L17.7669 19.3053L19.0829 19.1057L18.5304 18.5418Z" fill="#FF6C37"/>
<path d="M19.5291 19.2348L17.8725 19.4462C17.8282 19.4563 17.7818 19.4518 17.7402 19.4334C17.6987 19.415 17.6641 19.3838 17.6417 19.3442C17.6193 19.3046 17.6103 19.2589 17.6159 19.2138C17.6215 19.1687 17.6415 19.1266 17.673 19.0938L18.5307 18.236L19.5291 19.2348Z" fill="white"/>
<path d="M17.8254 19.6701C17.7486 19.6693 17.6734 19.6483 17.6074 19.609C17.5414 19.5698 17.4869 19.5138 17.4496 19.4467C17.4047 19.3663 17.3873 19.2734 17.4001 19.1822C17.4128 19.091 17.4549 19.0064 17.5201 18.9414L18.3779 18.0836C18.4192 18.0447 18.4738 18.0231 18.5305 18.0231C18.5872 18.0231 18.6418 18.0447 18.6832 18.0836L19.6819 19.0823C19.7116 19.1105 19.7325 19.1466 19.7421 19.1864C19.7517 19.2262 19.7495 19.2679 19.7358 19.3065C19.7222 19.345 19.6976 19.3788 19.6651 19.4037C19.6327 19.4286 19.5937 19.4435 19.5529 19.4467L17.9082 19.6582L17.8254 19.6701ZM17.8254 19.2352L19.0709 19.0823L18.5188 18.5303L17.8139 19.2352H17.8254ZM28.0466 10.7411C28.0244 10.704 27.9895 10.6763 27.9483 10.6634C27.9071 10.6504 27.8626 10.6529 27.8232 10.6706C27.8037 10.6804 27.7865 10.6941 27.7724 10.7107C27.7583 10.7274 27.7477 10.7467 27.7412 10.7675C27.7282 10.8095 27.7323 10.855 27.7527 10.894C27.8351 11.0671 27.8122 11.272 27.6941 11.4226C27.6794 11.4371 27.668 11.4546 27.6604 11.4737C27.6528 11.4929 27.6493 11.5135 27.6501 11.5341C27.6505 11.5754 27.6662 11.6151 27.6941 11.6456C27.7243 11.6575 27.7578 11.6575 27.7879 11.6456C27.8153 11.6524 27.844 11.6517 27.871 11.6434C27.8979 11.6351 27.9221 11.6195 27.9408 11.5984C28.0376 11.48 28.0988 11.3366 28.1175 11.1848C28.1363 11.033 28.1116 10.8795 28.0466 10.7411Z" fill="#FF6C37"/>
</svg>
