<svg width="36" height="36" viewBox="0 0 36 36" fill="none" xmlns="http://www.w3.org/2000/svg">
<path d="M18 20.7833C19.5533 20.7833 20.8125 19.5241 20.8125 17.9708C20.8125 16.4175 19.5533 15.1583 18 15.1583C16.4467 15.1583 15.1875 16.4175 15.1875 17.9708C15.1875 19.5241 16.4467 20.7833 18 20.7833Z" fill="#00D8FF"/>
<path d="M18 24.4192C14.6195 24.501 11.2475 24.0453 8.01 23.0692C6.51445 22.5952 5.11958 21.8483 3.89588 20.8665C3.42892 20.5311 3.04006 20.0986 2.75596 19.5988C2.47186 19.0989 2.29926 18.5436 2.25 17.9707C2.25 16.1111 4.293 14.2886 7.71525 13.0961C11.0393 12.0395 14.5124 11.5274 18 11.5796C21.441 11.5315 24.8676 12.0344 28.1497 13.0691C29.5901 13.5283 30.9376 14.239 32.13 15.1684C32.589 15.4881 32.972 15.9049 33.252 16.3892C33.5319 16.8735 33.7019 17.4134 33.75 17.9707C33.75 19.9035 31.4663 21.8621 27.7875 23.0794C24.6127 24.0237 21.3118 24.4755 18 24.4192ZM18 12.9251C14.6634 12.8805 11.3409 13.3674 8.15737 14.3674C5.00737 15.4665 3.5955 16.9695 3.5955 17.9674C3.5955 19.0114 5.11313 20.6527 8.44537 21.7924C11.5426 22.7215 14.7674 23.1539 18 23.0737C21.1685 23.1304 24.3269 22.7017 27.3656 21.8025C30.825 20.6561 32.4 19.0125 32.4 17.9707C32.3432 17.6133 32.213 17.2714 32.0174 16.9668C31.8218 16.6622 31.5652 16.4015 31.2638 16.2011C30.197 15.3767 28.9932 14.7468 27.7076 14.3404C24.5678 13.3546 21.2906 12.8768 18 12.9251Z" fill="#00D8FF"/>
<path d="M11.61 31.9984C11.0852 32.0104 10.5666 31.8831 10.107 31.6294C8.49605 30.7001 7.93805 28.0204 8.61417 24.4598C9.35965 21.0522 10.6513 17.7877 12.4392 14.7926C14.1162 11.7879 16.2633 9.07078 18.7988 6.74438C19.9161 5.72592 21.205 4.91349 22.6058 4.34475C23.1125 4.10731 23.6651 3.98422 24.2247 3.98422C24.7842 3.98422 25.3369 4.10731 25.8435 4.34475C27.5187 5.31 28.0733 8.2665 27.2914 12.0611C26.5229 15.2838 25.2648 18.3695 23.5609 21.2108C21.9429 24.18 19.8635 26.8735 17.4004 29.1904C16.2426 30.2488 14.8988 31.0837 13.437 31.653C12.8518 31.8702 12.2342 31.987 11.61 31.9984ZM13.6047 15.4609C11.8993 18.3289 10.6613 21.45 9.93717 24.7073C9.31505 27.9866 9.91242 29.9588 10.7809 30.4605C11.6809 30.9814 13.8657 30.4875 16.5184 28.17C18.8697 25.9503 20.8544 23.3721 22.3988 20.5313C24.0311 17.815 25.238 14.8648 25.9774 11.7833C26.7132 8.21138 26.0775 6.02438 25.1753 5.50463C24.8371 5.37506 24.4758 5.31705 24.114 5.33429C23.7523 5.35152 23.3981 5.44362 23.0738 5.60475C21.8269 6.11927 20.6806 6.84971 19.6875 7.7625C17.2651 9.99089 15.2142 12.5921 13.6125 15.4676L13.6047 15.4609Z" fill="#00D8FF"/>
<path d="M24.3866 32.013C22.8622 32.013 20.9261 31.0905 18.9101 29.3569C16.3301 27.0093 14.1468 24.2599 12.4447 21.2153C10.6793 18.2614 9.39781 15.0441 8.64893 11.6854C8.32415 10.2077 8.26397 8.6841 8.47118 7.18538C8.51908 6.62941 8.68837 6.09073 8.96712 5.6073C9.24586 5.12388 9.62726 4.70749 10.0844 4.38751C11.7573 3.41888 14.5957 4.41451 17.4926 6.98626C19.9007 9.26121 21.9457 11.892 23.5563 14.787C25.3206 17.6719 26.6155 20.8187 27.3926 24.1099C27.7313 25.6418 27.7836 27.2232 27.5467 28.7741C27.4903 29.3461 27.3109 29.8991 27.0208 30.3952C26.7307 30.8914 26.3367 31.3189 25.8659 31.6485C25.4139 31.8991 24.9033 32.0249 24.3866 32.013ZM13.6091 20.538C15.2419 23.4477 17.3275 26.079 19.7876 28.3331C22.3177 30.51 24.3247 30.978 25.1876 30.4706C26.0876 29.9475 26.7513 27.8123 26.0673 24.3574C25.3179 21.2152 24.0759 18.2114 22.3874 15.4575C20.8505 12.6868 18.8985 10.1676 16.5993 7.98751C13.8723 5.56651 11.6606 5.02538 10.7594 5.54738C10.4786 5.77562 10.2481 6.05962 10.0825 6.38144C9.91696 6.70326 9.81993 7.05592 9.79755 7.41713C9.61868 8.75373 9.67695 10.1114 9.96968 11.4278C10.69 14.6398 11.919 17.7161 13.6102 20.5403L13.6091 20.538Z" fill="#00D8FF"/>
</svg>
