<svg width="60" height="36" viewBox="0 0 60 36" fill="none" xmlns="http://www.w3.org/2000/svg">
<path d="M30.0007 0C22.0004 0 16.9998 4.00013 15 12.0004C18.0003 7.99968 21.5005 6.49985 25.5006 7.50031C27.7824 8.07062 29.4139 9.72651 31.2196 11.5595C34.1608 14.5444 37.5651 18.0003 45.0007 18.0003C53.001 18.0003 58.001 14.0002 60.0008 5.99991C57.0011 10.0006 53.5009 11.5004 49.5008 10.5C47.2184 9.92966 45.5875 8.27377 43.7818 6.44083C40.84 3.45592 37.4363 0 30.0007 0ZM15 18.0003C7.00036 18.0003 1.99978 22.0004 0 30.0007C3.00024 26 6.49985 24.5001 10.5 25.5006C12.7824 26.0709 14.4138 27.7268 16.219 29.5592C19.1608 32.5452 22.565 36 30.0007 36C38.0003 36 43.0004 32.0004 45.0007 24.0002C42.0005 28.0009 38.5003 29.5007 34.5007 28.5003C32.2184 27.9299 30.5869 26.2741 28.7812 24.4411C25.8399 21.4562 22.4357 18.0003 15 18.0003Z" fill="url(#paint0_linear_330_71)"/>
<defs>
<linearGradient id="paint0_linear_330_71" x1="-1.66669" y1="11.5201" x2="50.1545" y2="41.3987" gradientUnits="userSpaceOnUse">
<stop stop-color="#2298BD"/>
<stop offset="1" stop-color="#0ED7B5"/>
</linearGradient>
</defs>
</svg>
