<svg width="36" height="36" viewBox="0 0 36 36" fill="none" xmlns="http://www.w3.org/2000/svg">
<g clip-path="url(#clip0_332_81)">
<path d="M1.02804 12.6683C1.02804 12.6683 0.176698 12.0521 1.1996 11.2303L3.58123 9.09449C3.58123 9.09449 4.26354 8.37477 4.98439 9.00224L26.9711 25.6882V33.6898C26.9711 33.6898 26.9601 34.9464 25.3519 34.8081L1.02804 12.6683Z" fill="#2489CA"/>
<path d="M6.69631 17.8253L1.02828 22.9899C1.02828 22.9899 0.446094 23.4239 1.02828 24.2007L3.65966 26.5989C3.65966 26.5989 4.28459 27.2725 5.20878 26.5067L11.216 21.9398L6.69631 17.8253Z" fill="#1070B3"/>
<path d="M16.6454 17.8681L27.0384 9.91295L26.9712 1.95442C26.9712 1.95442 26.5274 0.217418 25.0466 1.1222L11.2158 13.7394L16.6454 17.8681Z" fill="#0877B9"/>
<path d="M25.352 34.8179C25.9553 35.4375 26.6871 35.2342 26.6871 35.2342L34.7863 31.2342C35.8232 30.5255 35.6781 29.6466 35.6781 29.6466V5.75579C35.6781 4.70533 34.606 4.34279 34.606 4.34279L27.5857 0.950638C26.0521 0.000293911 25.0469 1.1222 25.0469 1.1222C25.0469 1.1222 26.3387 0.189294 26.9715 1.9547V33.5439C26.9715 33.7613 26.9253 33.9742 26.8331 34.1665C26.6486 34.5412 26.2464 34.8894 25.2851 34.7434L25.352 34.8179Z" fill="#3C99D4"/>
</g>
<defs>
<clipPath id="clip0_332_81">
<rect width="36" height="36" fill="white"/>
</clipPath>
</defs>
</svg>
