<svg width="558" height="18" viewBox="0 0 558 18" fill="none" xmlns="http://www.w3.org/2000/svg">
<path d="M0.339746 9L9 17.6603L17.6603 9L9 0.339746L0.339746 9ZM557.66 9L549 0.339746L540.34 9L549 17.6603L557.66 9ZM9 10.5C9.74881 10.5 10.4966 10.5 11.2433 10.5C11.99 10.5 12.7356 10.5 13.4802 10.5C14.2248 10.5 14.9684 10.5 15.7109 10.5C16.4534 10.5 17.1948 10.5 17.9352 10.5C18.6756 10.5 19.415 10.5 20.1533 10.5C20.8916 10.5 21.6289 10.5 22.3651 10.5C23.1013 10.5 23.8365 10.5 24.5706 10.5C25.3047 10.5 26.0378 10.5 26.7699 10.5C27.5019 10.5 28.2329 10.5 28.9628 10.5C29.6928 10.5 30.4217 10.5 31.1496 10.5C31.8775 10.5 32.6043 10.5 33.3301 10.5C34.0559 10.5 34.7806 10.5 35.5044 10.5C36.2281 10.5 36.9508 10.5 37.6724 10.5C38.394 10.5 39.1147 10.5 39.8342 10.5C40.5538 10.5 41.2723 10.5 41.9898 10.5C42.7073 10.5 43.4238 10.5 44.1392 10.5C44.8547 10.5 45.5691 10.5 46.2825 10.5C46.9958 10.5 47.7082 10.5 48.4195 10.5C49.1308 10.5 49.8411 10.5 50.5503 10.5C51.2596 10.5 51.9678 10.5 52.675 10.5C53.3822 10.5 54.0884 10.5 54.7935 10.5C55.4987 10.5 56.2028 10.5 56.9059 10.5C57.609 10.5 58.3111 10.5 59.0121 10.5C59.7132 10.5 60.4132 10.5 61.1122 10.5C61.8112 10.5 62.5092 10.5 63.2061 10.5C63.9031 10.5 64.599 10.5 65.2939 10.5C65.9888 10.5 66.6827 10.5 67.3756 10.5C68.0685 10.5 68.7604 10.5 69.4512 10.5C70.1421 10.5 70.8319 10.5 71.5207 10.5C72.2095 10.5 72.8973 10.5 73.5841 10.5C74.2709 10.5 74.9566 10.5 75.6414 10.5C76.3262 10.5 77.0099 10.5 77.6926 10.5C78.3754 10.5 79.0571 10.5 79.7378 10.5C80.4185 10.5 81.0982 10.5 81.7769 10.5C82.4556 10.5 83.1333 10.5 83.8099 10.5C84.4866 10.5 85.1623 10.5 85.8369 10.5C86.5116 10.5 87.1852 10.5 87.8579 10.5C88.5305 10.5 89.2022 10.5 89.8728 10.5C90.5434 10.5 91.2131 10.5 91.8817 10.5C92.5503 10.5 93.218 10.5 93.8846 10.5C94.5512 10.5 95.2169 10.5 95.8815 10.5C96.5461 10.5 97.2097 10.5 97.8724 10.5C98.535 10.5 99.1966 10.5 99.8573 10.5C100.518 10.5 101.178 10.5 101.836 10.5C102.495 10.5 103.152 10.5 103.809 10.5C104.466 10.5 105.121 10.5 105.776 10.5C106.431 10.5 107.084 10.5 107.737 10.5C108.39 10.5 109.041 10.5 109.692 10.5C110.343 10.5 110.992 10.5 111.641 10.5C112.29 10.5 112.938 10.5 113.584 10.5C114.231 10.5 114.877 10.5 115.522 10.5C116.166 10.5 116.81 10.5 117.453 10.5C118.096 10.5 118.738 10.5 119.378 10.5C120.019 10.5 120.659 10.5 121.298 10.5C121.937 10.5 122.575 10.5 123.211 10.5C123.848 10.5 124.484 10.5 125.119 10.5C125.754 10.5 126.388 10.5 127.021 10.5C127.654 10.5 128.286 10.5 128.917 10.5C129.548 10.5 130.178 10.5 130.807 10.5C131.436 10.5 132.064 10.5 132.691 10.5C133.318 10.5 133.944 10.5 134.57 10.5C135.195 10.5 135.819 10.5 136.442 10.5C137.065 10.5 137.688 10.5 138.309 10.5C138.93 10.5 139.55 10.5 140.17 10.5C140.789 10.5 141.407 10.5 142.025 10.5C142.642 10.5 143.258 10.5 143.874 10.5C144.489 10.5 145.104 10.5 145.717 10.5C146.331 10.5 146.943 10.5 147.555 10.5C148.167 10.5 148.777 10.5 149.387 10.5C149.996 10.5 150.605 10.5 151.213 10.5C151.821 10.5 152.427 10.5 153.033 10.5C153.639 10.5 154.244 10.5 154.848 10.5C155.452 10.5 156.054 10.5 156.656 10.5C157.258 10.5 157.859 10.5 158.459 10.5C159.059 10.5 159.659 10.5 160.257 10.5C160.855 10.5 161.452 10.5 162.048 10.5C162.644 10.5 163.24 10.5 163.834 10.5C164.428 10.5 165.022 10.5 165.614 10.5C166.207 10.5 166.798 10.5 167.389 10.5C167.979 10.5 168.569 10.5 169.157 10.5C169.746 10.5 170.333 10.5 170.92 10.5C171.507 10.5 172.093 10.5 172.677 10.5C173.262 10.5 173.846 10.5 174.429 10.5C175.012 10.5 175.594 10.5 176.175 10.5C176.756 10.5 177.336 10.5 177.915 10.5C178.494 10.5 179.073 10.5 179.65 10.5C180.227 10.5 180.803 10.5 181.379 10.5C181.954 10.5 182.529 10.5 183.102 10.5C183.676 10.5 184.248 10.5 184.82 10.5C185.392 10.5 185.962 10.5 186.532 10.5C187.102 10.5 187.671 10.5 188.238 10.5C188.806 10.5 189.373 10.5 189.939 10.5C190.505 10.5 191.07 10.5 191.635 10.5C192.199 10.5 192.762 10.5 193.324 10.5C193.886 10.5 194.448 10.5 195.008 10.5C195.569 10.5 196.128 10.5 196.687 10.5C197.245 10.5 197.803 10.5 198.36 10.5C198.916 10.5 199.472 10.5 200.027 10.5C200.582 10.5 201.136 10.5 201.689 10.5C202.242 10.5 202.794 10.5 203.345 10.5C203.896 10.5 204.446 10.5 204.996 10.5C205.545 10.5 206.093 10.5 206.641 10.5C207.188 10.5 207.735 10.5 208.281 10.5C208.826 10.5 209.371 10.5 209.915 10.5C210.458 10.5 211.001 10.5 211.543 10.5C212.085 10.5 212.626 10.5 213.166 10.5C213.707 10.5 214.246 10.5 214.784 10.5C215.322 10.5 215.86 10.5 216.396 10.5C216.933 10.5 217.468 10.5 218.003 10.5C218.538 10.5 219.071 10.5 219.604 10.5C220.137 10.5 220.669 10.5 221.2 10.5C221.731 10.5 222.261 10.5 222.79 10.5C223.319 10.5 223.848 10.5 224.375 10.5C224.902 10.5 225.429 10.5 225.954 10.5C226.48 10.5 227.005 10.5 227.528 10.5C228.052 10.5 228.575 10.5 229.097 10.5C229.619 10.5 230.14 10.5 230.66 10.5C231.18 10.5 231.699 10.5 232.218 10.5C232.736 10.5 233.254 10.5 233.77 10.5C234.287 10.5 234.802 10.5 235.317 10.5C235.832 10.5 236.346 10.5 236.859 10.5C237.372 10.5 237.884 10.5 238.395 10.5C238.906 10.5 239.416 10.5 239.926 10.5C240.435 10.5 240.944 10.5 241.451 10.5C241.959 10.5 242.465 10.5 242.971 10.5C243.477 10.5 243.982 10.5 244.486 10.5C244.99 10.5 245.493 10.5 245.995 10.5C246.498 10.5 246.999 10.5 247.499 10.5C248 10.5 248.5 10.5 248.998 10.5C249.497 10.5 249.995 10.5 250.492 10.5C250.989 10.5 251.485 10.5 251.98 10.5C252.475 10.5 252.969 10.5 253.463 10.5C253.956 10.5 254.449 10.5 254.94 10.5C255.432 10.5 255.923 10.5 256.413 10.5C256.902 10.5 257.391 10.5 257.88 10.5C258.368 10.5 258.855 10.5 259.341 10.5C259.828 10.5 260.313 10.5 260.798 10.5C261.282 10.5 261.766 10.5 262.249 10.5C262.732 10.5 263.214 10.5 263.695 10.5C264.176 10.5 264.656 10.5 265.136 10.5C265.615 10.5 266.094 10.5 266.571 10.5C267.049 10.5 267.526 10.5 268.002 10.5C268.478 10.5 268.953 10.5 269.427 10.5C269.901 10.5 270.374 10.5 270.847 10.5C271.319 10.5 271.791 10.5 272.261 10.5C272.732 10.5 273.202 10.5 273.671 10.5C274.14 10.5 274.608 10.5 275.075 10.5C275.543 10.5 276.009 10.5 276.474 10.5C276.94 10.5 277.405 10.5 277.868 10.5C278.332 10.5 278.795 10.5 279.257 10.5C279.719 10.5 280.181 10.5 280.641 10.5C281.101 10.5 281.561 10.5 282.02 10.5C282.478 10.5 282.936 10.5 283.393 10.5C283.85 10.5 284.306 10.5 284.761 10.5C285.216 10.5 285.671 10.5 286.124 10.5C286.578 10.5 287.031 10.5 287.482 10.5C287.934 10.5 288.385 10.5 288.835 10.5C289.286 10.5 289.735 10.5 290.183 10.5C290.632 10.5 291.079 10.5 291.526 10.5C291.973 10.5 292.419 10.5 292.864 10.5C293.309 10.5 293.753 10.5 294.196 10.5C294.64 10.5 295.082 10.5 295.524 10.5C295.966 10.5 296.406 10.5 296.846 10.5C297.286 10.5 297.726 10.5 298.164 10.5C298.602 10.5 299.04 10.5 299.476 10.5C299.913 10.5 300.349 10.5 300.784 10.5C301.219 10.5 301.653 10.5 302.086 10.5C302.519 10.5 302.952 10.5 303.383 10.5C303.815 10.5 304.246 10.5 304.676 10.5C305.106 10.5 305.535 10.5 305.963 10.5C306.391 10.5 306.819 10.5 307.245 10.5C307.672 10.5 308.098 10.5 308.523 10.5C308.948 10.5 309.372 10.5 309.795 10.5C310.218 10.5 310.641 10.5 311.063 10.5C311.484 10.5 311.905 10.5 312.325 10.5C312.745 10.5 313.164 10.5 313.583 10.5C314.001 10.5 314.418 10.5 314.835 10.5C315.252 10.5 315.668 10.5 316.083 10.5C316.498 10.5 316.912 10.5 317.325 10.5C317.739 10.5 318.151 10.5 318.563 10.5C318.975 10.5 319.386 10.5 319.796 10.5C320.206 10.5 320.615 10.5 321.024 10.5C321.432 10.5 321.84 10.5 322.247 10.5C322.654 10.5 323.06 10.5 323.465 10.5C323.87 10.5 324.275 10.5 324.678 10.5C325.082 10.5 325.485 10.5 325.887 10.5C326.289 10.5 326.69 10.5 327.09 10.5C327.491 10.5 327.89 10.5 328.289 10.5C328.688 10.5 329.086 10.5 329.483 10.5C329.88 10.5 330.276 10.5 330.672 10.5C331.067 10.5 331.462 10.5 331.856 10.5C332.25 10.5 332.643 10.5 333.035 10.5C333.427 10.5 333.819 10.5 334.21 10.5C334.6 10.5 334.99 10.5 335.379 10.5C335.768 10.5 336.157 10.5 336.544 10.5C336.931 10.5 337.318 10.5 337.704 10.5C338.09 10.5 338.475 10.5 338.859 10.5C339.244 10.5 339.627 10.5 340.01 10.5C340.392 10.5 340.774 10.5 341.156 10.5C341.537 10.5 341.917 10.5 342.296 10.5C342.676 10.5 343.055 10.5 343.433 10.5C343.811 10.5 344.188 10.5 344.564 10.5C344.94 10.5 345.316 10.5 345.691 10.5C346.065 10.5 346.439 10.5 346.813 10.5C347.186 10.5 347.558 10.5 347.93 10.5C348.302 10.5 348.672 10.5 349.042 10.5C349.412 10.5 349.782 10.5 350.15 10.5C350.519 10.5 350.886 10.5 351.253 10.5C351.62 10.5 351.986 10.5 352.352 10.5C352.717 10.5 353.082 10.5 353.445 10.5C353.809 10.5 354.172 10.5 354.534 10.5C354.897 10.5 355.258 10.5 355.619 10.5C355.979 10.5 356.339 10.5 356.698 10.5C357.057 10.5 357.416 10.5 357.773 10.5C358.131 10.5 358.488 10.5 358.844 10.5C359.2 10.5 359.555 10.5 359.909 10.5C360.264 10.5 360.618 10.5 360.971 10.5C361.324 10.5 361.676 10.5 362.027 10.5C362.378 10.5 362.729 10.5 363.079 10.5C363.429 10.5 363.778 10.5 364.126 10.5C364.474 10.5 364.822 10.5 365.169 10.5C365.516 10.5 365.862 10.5 366.207 10.5C366.552 10.5 366.897 10.5 367.24 10.5C367.584 10.5 367.927 10.5 368.269 10.5C368.611 10.5 368.953 10.5 369.293 10.5C369.634 10.5 369.974 10.5 370.313 10.5C370.652 10.5 370.991 10.5 371.328 10.5C371.666 10.5 372.003 10.5 372.339 10.5C372.675 10.5 373.01 10.5 373.345 10.5C373.68 10.5 374.014 10.5 374.347 10.5C374.68 10.5 375.012 10.5 375.344 10.5C375.675 10.5 376.006 10.5 376.336 10.5C376.666 10.5 376.996 10.5 377.324 10.5C377.653 10.5 377.981 10.5 378.308 10.5C378.635 10.5 378.961 10.5 379.287 10.5C379.612 10.5 379.937 10.5 380.261 10.5C380.585 10.5 380.909 10.5 381.231 10.5C381.554 10.5 381.876 10.5 382.197 10.5C382.518 10.5 382.838 10.5 383.158 10.5C383.478 10.5 383.796 10.5 384.115 10.5C384.433 10.5 384.75 10.5 385.067 10.5C385.384 10.5 385.699 10.5 386.015 10.5C386.33 10.5 386.644 10.5 386.958 10.5C387.272 10.5 387.585 10.5 387.897 10.5C388.209 10.5 388.521 10.5 388.831 10.5C389.142 10.5 389.452 10.5 389.761 10.5C390.071 10.5 390.379 10.5 390.687 10.5C390.995 10.5 391.302 10.5 391.608 10.5C391.915 10.5 392.22 10.5 392.525 10.5C392.83 10.5 393.134 10.5 393.438 10.5C393.741 10.5 394.044 10.5 394.346 10.5C394.648 10.5 394.949 10.5 395.25 10.5C395.55 10.5 395.85 10.5 396.149 10.5C396.448 10.5 396.747 10.5 397.044 10.5C397.342 10.5 397.639 10.5 397.935 10.5C398.231 10.5 398.527 10.5 398.822 10.5C399.116 10.5 399.41 10.5 399.704 10.5C399.997 10.5 400.29 10.5 400.582 10.5C400.874 10.5 401.165 10.5 401.455 10.5C401.746 10.5 402.035 10.5 402.324 10.5C402.613 10.5 402.902 10.5 403.189 10.5C403.477 10.5 403.764 10.5 404.05 10.5C404.336 10.5 404.621 10.5 404.906 10.5C405.191 10.5 405.475 10.5 405.758 10.5C406.042 10.5 406.324 10.5 406.606 10.5C406.888 10.5 407.169 10.5 407.45 10.5C407.73 10.5 408.01 10.5 408.289 10.5C408.568 10.5 408.846 10.5 409.124 10.5C409.402 10.5 409.679 10.5 409.955 10.5C410.231 10.5 410.507 10.5 410.782 10.5C411.056 10.5 411.331 10.5 411.604 10.5C411.878 10.5 412.15 10.5 412.422 10.5C412.694 10.5 412.966 10.5 413.236 10.5C413.507 10.5 413.777 10.5 414.046 10.5C414.315 10.5 414.584 10.5 414.852 10.5C415.12 10.5 415.387 10.5 415.653 10.5C415.92 10.5 416.186 10.5 416.451 10.5C416.716 10.5 416.98 10.5 417.244 10.5C417.507 10.5 417.77 10.5 418.033 10.5C418.295 10.5 418.557 10.5 418.818 10.5C419.079 10.5 419.339 10.5 419.598 10.5C419.858 10.5 420.117 10.5 420.375 10.5C420.633 10.5 420.891 10.5 421.147 10.5C421.404 10.5 421.66 10.5 421.916 10.5C422.171 10.5 422.426 10.5 422.68 10.5C422.934 10.5 423.188 10.5 423.44 10.5C423.693 10.5 423.945 10.5 424.196 10.5C424.448 10.5 424.698 10.5 424.948 10.5C425.198 10.5 425.448 10.5 425.696 10.5C425.945 10.5 426.193 10.5 426.44 10.5C426.687 10.5 426.934 10.5 427.18 10.5C427.426 10.5 427.671 10.5 427.916 10.5C428.16 10.5 428.404 10.5 428.647 10.5C428.891 10.5 429.133 10.5 429.375 10.5C429.617 10.5 429.858 10.5 430.099 10.5C430.339 10.5 430.579 10.5 430.819 10.5C431.058 10.5 431.296 10.5 431.534 10.5C431.772 10.5 432.009 10.5 432.246 10.5C432.482 10.5 432.718 10.5 432.953 10.5C433.189 10.5 433.423 10.5 433.657 10.5C433.891 10.5 434.124 10.5 434.357 10.5C434.589 10.5 434.821 10.5 435.052 10.5C435.284 10.5 435.514 10.5 435.744 10.5C435.974 10.5 436.203 10.5 436.432 10.5C436.661 10.5 436.888 10.5 437.116 10.5C437.343 10.5 437.57 10.5 437.796 10.5C438.022 10.5 438.247 10.5 438.472 10.5C438.696 10.5 438.92 10.5 439.144 10.5C439.367 10.5 439.59 10.5 439.812 10.5C440.034 10.5 440.255 10.5 440.476 10.5C440.697 10.5 440.917 10.5 441.136 10.5C441.356 10.5 441.575 10.5 441.793 10.5C442.011 10.5 442.228 10.5 442.445 10.5C442.662 10.5 442.878 10.5 443.094 10.5C443.31 10.5 443.524 10.5 443.739 10.5C443.953 10.5 444.167 10.5 444.38 10.5C444.593 10.5 444.805 10.5 445.017 10.5C445.228 10.5 445.44 10.5 445.65 10.5C445.86 10.5 446.07 10.5 446.279 10.5C446.489 10.5 446.697 10.5 446.905 10.5C447.113 10.5 447.32 10.5 447.527 10.5C447.733 10.5 447.939 10.5 448.145 10.5C448.35 10.5 448.555 10.5 448.759 10.5C448.963 10.5 449.166 10.5 449.369 10.5C449.572 10.5 449.774 10.5 449.976 10.5C450.177 10.5 450.378 10.5 450.578 10.5C450.779 10.5 450.978 10.5 451.177 10.5C451.376 10.5 451.575 10.5 451.772 10.5C451.97 10.5 452.167 10.5 452.364 10.5C452.56 10.5 452.756 10.5 452.952 10.5C453.147 10.5 453.341 10.5 453.535 10.5C453.729 10.5 453.923 10.5 454.116 10.5C454.308 10.5 454.501 10.5 454.692 10.5C454.884 10.5 455.075 10.5 455.265 10.5C455.455 10.5 455.645 10.5 455.834 10.5C456.023 10.5 456.211 10.5 456.399 10.5C456.587 10.5 456.774 10.5 456.961 10.5C457.147 10.5 457.333 10.5 457.519 10.5C457.704 10.5 457.889 10.5 458.073 10.5C458.257 10.5 458.441 10.5 458.624 10.5C458.807 10.5 458.989 10.5 459.171 10.5C459.352 10.5 459.533 10.5 459.714 10.5C459.894 10.5 460.074 10.5 460.253 10.5C460.433 10.5 460.611 10.5 460.789 10.5C460.967 10.5 461.145 10.5 461.322 10.5C461.499 10.5 461.675 10.5 461.85 10.5C462.026 10.5 462.201 10.5 462.376 10.5C462.55 10.5 462.724 10.5 462.897 10.5C463.07 10.5 463.243 10.5 463.415 10.5C463.587 10.5 463.758 10.5 463.929 10.5C464.1 10.5 464.27 10.5 464.44 10.5C464.609 10.5 464.779 10.5 464.947 10.5C465.115 10.5 465.283 10.5 465.45 10.5C465.618 10.5 465.784 10.5 465.95 10.5C466.116 10.5 466.282 10.5 466.447 10.5C466.612 10.5 466.776 10.5 466.94 10.5C467.103 10.5 467.266 10.5 467.429 10.5C467.592 10.5 467.753 10.5 467.915 10.5C468.076 10.5 468.237 10.5 468.397 10.5C468.557 10.5 468.717 10.5 468.876 10.5C469.035 10.5 469.193 10.5 469.351 10.5C469.509 10.5 469.666 10.5 469.823 10.5C469.979 10.5 470.135 10.5 470.291 10.5C470.446 10.5 470.601 10.5 470.756 10.5C470.91 10.5 471.064 10.5 471.217 10.5C471.37 10.5 471.523 10.5 471.675 10.5C471.827 10.5 471.978 10.5 472.129 10.5C472.28 10.5 472.43 10.5 472.58 10.5C472.73 10.5 472.879 10.5 473.027 10.5C473.176 10.5 473.324 10.5 473.471 10.5C473.619 10.5 473.766 10.5 473.912 10.5C474.058 10.5 474.204 10.5 474.349 10.5C474.494 10.5 474.639 10.5 474.783 10.5C474.927 10.5 475.07 10.5 475.213 10.5C475.356 10.5 475.498 10.5 475.64 10.5C475.782 10.5 475.923 10.5 476.063 10.5C476.204 10.5 476.344 10.5 476.483 10.5C476.623 10.5 476.762 10.5 476.9 10.5C477.039 10.5 477.176 10.5 477.314 10.5C477.451 10.5 477.587 10.5 477.724 10.5C477.86 10.5 477.995 10.5 478.13 10.5C478.265 10.5 478.4 10.5 478.534 10.5C478.667 10.5 478.801 10.5 478.934 10.5C479.066 10.5 479.198 10.5 479.33 10.5C479.462 10.5 479.593 10.5 479.723 10.5C479.854 10.5 479.984 10.5 480.113 10.5C480.243 10.5 480.372 10.5 480.5 10.5C480.628 10.5 480.756 10.5 480.884 10.5C481.011 10.5 481.137 10.5 481.264 10.5C481.39 10.5 481.515 10.5 481.64 10.5C481.765 10.5 481.89 10.5 482.014 10.5C482.138 10.5 482.261 10.5 482.384 10.5C482.507 10.5 482.629 10.5 482.751 10.5C482.873 10.5 482.994 10.5 483.115 10.5C483.236 10.5 483.356 10.5 483.475 10.5C483.595 10.5 483.714 10.5 483.833 10.5C483.951 10.5 484.069 10.5 484.187 10.5C484.304 10.5 484.421 10.5 484.538 10.5C484.654 10.5 484.77 10.5 484.885 10.5C485.001 10.5 485.115 10.5 485.23 10.5C485.344 10.5 485.458 10.5 485.571 10.5C485.684 10.5 485.797 10.5 485.909 10.5C486.021 10.5 486.133 10.5 486.244 10.5C486.355 10.5 486.465 10.5 486.575 10.5C486.685 10.5 486.795 10.5 486.904 10.5C487.013 10.5 487.121 10.5 487.229 10.5C487.337 10.5 487.444 10.5 487.551 10.5C487.658 10.5 487.764 10.5 487.87 10.5C487.976 10.5 488.081 10.5 488.186 10.5C488.291 10.5 488.395 10.5 488.499 10.5C488.603 10.5 488.706 10.5 488.809 10.5C488.911 10.5 489.013 10.5 489.115 10.5C489.217 10.5 489.318 10.5 489.418 10.5C489.519 10.5 489.619 10.5 489.719 10.5C489.818 10.5 489.918 10.5 490.016 10.5C490.115 10.5 490.213 10.5 490.31 10.5C490.408 10.5 490.505 10.5 490.601 10.5C490.698 10.5 490.794 10.5 490.889 10.5C490.985 10.5 491.08 10.5 491.174 10.5C491.269 10.5 491.363 10.5 491.456 10.5C491.55 10.5 491.643 10.5 491.735 10.5C491.827 10.5 491.919 10.5 492.011 10.5C492.102 10.5 492.193 10.5 492.284 10.5C492.374 10.5 492.464 10.5 492.553 10.5C492.643 10.5 492.732 10.5 492.82 10.5C492.909 10.5 492.997 10.5 493.084 10.5C493.171 10.5 493.258 10.5 493.345 10.5C493.431 10.5 493.517 10.5 493.603 10.5C493.688 10.5 493.773 10.5 493.857 10.5C493.942 10.5 494.026 10.5 494.109 10.5C494.193 10.5 494.276 10.5 494.358 10.5C494.441 10.5 494.522 10.5 494.604 10.5C494.685 10.5 494.766 10.5 494.847 10.5C494.927 10.5 495.007 10.5 495.087 10.5C495.166 10.5 495.246 10.5 495.324 10.5C495.403 10.5 495.481 10.5 495.558 10.5C495.636 10.5 495.713 10.5 495.789 10.5C495.866 10.5 495.942 10.5 496.018 10.5C496.093 10.5 496.169 10.5 496.243 10.5C496.318 10.5 496.392 10.5 496.466 10.5C496.539 10.5 496.613 10.5 496.685 10.5C496.758 10.5 496.83 10.5 496.902 10.5C496.974 10.5 497.045 10.5 497.116 10.5C497.187 10.5 497.257 10.5 497.327 10.5C497.397 10.5 497.466 10.5 497.535 10.5C497.604 10.5 497.673 10.5 497.741 10.5C497.809 10.5 497.876 10.5 497.943 10.5C498.01 10.5 498.077 10.5 498.143 10.5C498.209 10.5 498.275 10.5 498.34 10.5C498.405 10.5 498.469 10.5 498.534 10.5C498.598 10.5 498.662 10.5 498.725 10.5C498.788 10.5 498.851 10.5 498.913 10.5C498.976 10.5 499.038 10.5 499.099 10.5C499.16 10.5 499.221 10.5 499.282 10.5C499.342 10.5 499.402 10.5 499.462 10.5C499.521 10.5 499.581 10.5 499.639 10.5C499.698 10.5 499.756 10.5 499.814 10.5C499.871 10.5 499.929 10.5 499.985 10.5C500.042 10.5 500.099 10.5 500.154 10.5C500.21 10.5 500.266 10.5 500.321 10.5C500.376 10.5 500.43 10.5 500.484 10.5C500.538 10.5 500.592 10.5 500.645 10.5C500.698 10.5 500.751 10.5 500.803 10.5C500.856 10.5 500.907 10.5 500.959 10.5C501.01 10.5 501.061 10.5 501.111 10.5C501.162 10.5 501.212 10.5 501.261 10.5C501.311 10.5 501.36 10.5 501.409 10.5C501.457 10.5 501.506 10.5 501.553 10.5C501.601 10.5 501.649 10.5 501.695 10.5C501.742 10.5 501.789 10.5 501.835 10.5C501.881 10.5 501.926 10.5 501.972 10.5C502.017 10.5 502.061 10.5 502.106 10.5C502.15 10.5 502.194 10.5 502.237 10.5C502.28 10.5 502.323 10.5 502.366 10.5C502.408 10.5 502.45 10.5 502.492 10.5C502.534 10.5 502.575 10.5 502.615 10.5C502.656 10.5 502.697 10.5 502.736 10.5C502.776 10.5 502.816 10.5 502.855 10.5C502.894 10.5 502.932 10.5 502.97 10.5C503.009 10.5 503.046 10.5 503.084 10.5C503.121 10.5 503.158 10.5 503.194 10.5C503.231 10.5 503.267 10.5 503.302 10.5C503.338 10.5 503.373 10.5 503.408 10.5C503.442 10.5 503.477 10.5 503.511 10.5C503.545 10.5 503.578 10.5 503.611 10.5C503.644 10.5 503.677 10.5 503.709 10.5C503.741 10.5 503.773 10.5 503.804 10.5C503.836 10.5 503.866 10.5 503.897 10.5C503.927 10.5 503.958 10.5 503.987 10.5C504.017 10.5 504.046 10.5 504.075 10.5C504.104 10.5 504.132 10.5 504.16 10.5C504.188 10.5 504.216 10.5 504.243 10.5C504.27 10.5 504.297 10.5 504.323 10.5C504.35 10.5 504.376 10.5 504.401 10.5C504.427 10.5 504.452 10.5 504.477 10.5C504.501 10.5 504.526 10.5 504.55 10.5C504.573 10.5 504.597 10.5 504.62 10.5C504.643 10.5 504.666 10.5 504.688 10.5C504.71 10.5 504.732 10.5 504.754 10.5C504.775 10.5 504.796 10.5 504.817 10.5C504.837 10.5 504.858 10.5 504.878 10.5C504.897 10.5 504.917 10.5 504.936 10.5C504.955 10.5 504.974 10.5 504.992 10.5C505.01 10.5 505.028 10.5 505.045 10.5C505.063 10.5 505.08 10.5 505.097 10.5C505.113 10.5 505.129 10.5 505.145 10.5C505.161 10.5 505.177 10.5 505.192 10.5C505.207 10.5 505.221 10.5 505.236 10.5C505.25 10.5 505.264 10.5 505.277 10.5C505.291 10.5 505.304 10.5 505.317 10.5C505.329 10.5 505.342 10.5 505.354 10.5C505.366 10.5 505.377 10.5 505.388 10.5V7.5C505.377 7.5 505.366 7.5 505.354 7.5C505.342 7.5 505.329 7.5 505.317 7.5C505.304 7.5 505.291 7.5 505.277 7.5C505.264 7.5 505.25 7.5 505.236 7.5C505.221 7.5 505.207 7.5 505.192 7.5C505.177 7.5 505.161 7.5 505.145 7.5C505.129 7.5 505.113 7.5 505.097 7.5C505.08 7.5 505.063 7.5 505.045 7.5C505.028 7.5 505.01 7.5 504.992 7.5C504.974 7.5 504.955 7.5 504.936 7.5C504.917 7.5 504.897 7.5 504.878 7.5C504.858 7.5 504.837 7.5 504.817 7.5C504.796 7.5 504.775 7.5 504.754 7.5C504.732 7.5 504.71 7.5 504.688 7.5C504.666 7.5 504.643 7.5 504.62 7.5C504.597 7.5 504.573 7.5 504.55 7.5C504.526 7.5 504.501 7.5 504.477 7.5C504.452 7.5 504.427 7.5 504.401 7.5C504.376 7.5 504.35 7.5 504.323 7.5C504.297 7.5 504.27 7.5 504.243 7.5C504.216 7.5 504.188 7.5 504.16 7.5C504.132 7.5 504.104 7.5 504.075 7.5C504.046 7.5 504.017 7.5 503.987 7.5C503.958 7.5 503.927 7.5 503.897 7.5C503.866 7.5 503.836 7.5 503.804 7.5C503.773 7.5 503.741 7.5 503.709 7.5C503.677 7.5 503.644 7.5 503.611 7.5C503.578 7.5 503.545 7.5 503.511 7.5C503.477 7.5 503.442 7.5 503.408 7.5C503.373 7.5 503.338 7.5 503.302 7.5C503.267 7.5 503.231 7.5 503.194 7.5C503.158 7.5 503.121 7.5 503.084 7.5C503.046 7.5 503.009 7.5 502.97 7.5C502.932 7.5 502.894 7.5 502.855 7.5C502.816 7.5 502.776 7.5 502.736 7.5C502.697 7.5 502.656 7.5 502.615 7.5C502.575 7.5 502.534 7.5 502.492 7.5C502.45 7.5 502.408 7.5 502.366 7.5C502.323 7.5 502.28 7.5 502.237 7.5C502.194 7.5 502.15 7.5 502.106 7.5C502.061 7.5 502.017 7.5 501.972 7.5C501.926 7.5 501.881 7.5 501.835 7.5C501.789 7.5 501.742 7.5 501.695 7.5C501.649 7.5 501.601 7.5 501.553 7.5C501.506 7.5 501.457 7.5 501.409 7.5C501.36 7.5 501.311 7.5 501.261 7.5C501.212 7.5 501.162 7.5 501.111 7.5C501.061 7.5 501.01 7.5 500.959 7.5C500.907 7.5 500.856 7.5 500.803 7.5C500.751 7.5 500.698 7.5 500.645 7.5C500.592 7.5 500.538 7.5 500.484 7.5C500.43 7.5 500.376 7.5 500.321 7.5C500.266 7.5 500.21 7.5 500.154 7.5C500.099 7.5 500.042 7.5 499.985 7.5C499.929 7.5 499.871 7.5 499.814 7.5C499.756 7.5 499.698 7.5 499.639 7.5C499.581 7.5 499.521 7.5 499.462 7.5C499.402 7.5 499.342 7.5 499.282 7.5C499.221 7.5 499.16 7.5 499.099 7.5C499.038 7.5 498.976 7.5 498.913 7.5C498.851 7.5 498.788 7.5 498.725 7.5C498.662 7.5 498.598 7.5 498.534 7.5C498.469 7.5 498.405 7.5 498.34 7.5C498.275 7.5 498.209 7.5 498.143 7.5C498.077 7.5 498.01 7.5 497.943 7.5C497.876 7.5 497.809 7.5 497.741 7.5C497.673 7.5 497.604 7.5 497.535 7.5C497.466 7.5 497.397 7.5 497.327 7.5C497.257 7.5 497.187 7.5 497.116 7.5C497.045 7.5 496.974 7.5 496.902 7.5C496.83 7.5 496.758 7.5 496.685 7.5C496.613 7.5 496.539 7.5 496.466 7.5C496.392 7.5 496.318 7.5 496.243 7.5C496.169 7.5 496.093 7.5 496.018 7.5C495.942 7.5 495.866 7.5 495.789 7.5C495.713 7.5 495.636 7.5 495.558 7.5C495.481 7.5 495.403 7.5 495.324 7.5C495.246 7.5 495.166 7.5 495.087 7.5C495.007 7.5 494.927 7.5 494.847 7.5C494.766 7.5 494.685 7.5 494.604 7.5C494.522 7.5 494.441 7.5 494.358 7.5C494.276 7.5 494.193 7.5 494.109 7.5C494.026 7.5 493.942 7.5 493.857 7.5C493.773 7.5 493.688 7.5 493.603 7.5C493.517 7.5 493.431 7.5 493.345 7.5C493.258 7.5 493.171 7.5 493.084 7.5C492.997 7.5 492.909 7.5 492.82 7.5C492.732 7.5 492.643 7.5 492.553 7.5C492.464 7.5 492.374 7.5 492.284 7.5C492.193 7.5 492.102 7.5 492.011 7.5C491.919 7.5 491.827 7.5 491.735 7.5C491.643 7.5 491.55 7.5 491.456 7.5C491.363 7.5 491.269 7.5 491.174 7.5C491.08 7.5 490.985 7.5 490.889 7.5C490.794 7.5 490.698 7.5 490.601 7.5C490.505 7.5 490.408 7.5 490.31 7.5C490.213 7.5 490.115 7.5 490.016 7.5C489.918 7.5 489.818 7.5 489.719 7.5C489.619 7.5 489.519 7.5 489.418 7.5C489.318 7.5 489.217 7.5 489.115 7.5C489.013 7.5 488.911 7.5 488.809 7.5C488.706 7.5 488.603 7.5 488.499 7.5C488.395 7.5 488.291 7.5 488.186 7.5C488.081 7.5 487.976 7.5 487.87 7.5C487.764 7.5 487.658 7.5 487.551 7.5C487.444 7.5 487.337 7.5 487.229 7.5C487.121 7.5 487.013 7.5 486.904 7.5C486.795 7.5 486.685 7.5 486.575 7.5C486.465 7.5 486.355 7.5 486.244 7.5C486.133 7.5 486.021 7.5 485.909 7.5C485.797 7.5 485.684 7.5 485.571 7.5C485.458 7.5 485.344 7.5 485.23 7.5C485.115 7.5 485.001 7.5 484.885 7.5C484.77 7.5 484.654 7.5 484.538 7.5C484.421 7.5 484.304 7.5 484.187 7.5C484.069 7.5 483.951 7.5 483.833 7.5C483.714 7.5 483.595 7.5 483.475 7.5C483.356 7.5 483.236 7.5 483.115 7.5C482.994 7.5 482.873 7.5 482.751 7.5C482.629 7.5 482.507 7.5 482.384 7.5C482.261 7.5 482.138 7.5 482.014 7.5C481.89 7.5 481.765 7.5 481.64 7.5C481.515 7.5 481.39 7.5 481.264 7.5C481.137 7.5 481.011 7.5 480.884 7.5C480.756 7.5 480.628 7.5 480.5 7.5C480.372 7.5 480.243 7.5 480.113 7.5C479.984 7.5 479.854 7.5 479.723 7.5C479.593 7.5 479.462 7.5 479.33 7.5C479.198 7.5 479.066 7.5 478.934 7.5C478.801 7.5 478.667 7.5 478.534 7.5C478.4 7.5 478.265 7.5 478.13 7.5C477.995 7.5 477.86 7.5 477.724 7.5C477.587 7.5 477.451 7.5 477.314 7.5C477.176 7.5 477.039 7.5 476.9 7.5C476.762 7.5 476.623 7.5 476.483 7.5C476.344 7.5 476.204 7.5 476.063 7.5C475.923 7.5 475.782 7.5 475.64 7.5C475.498 7.5 475.356 7.5 475.213 7.5C475.07 7.5 474.927 7.5 474.783 7.5C474.639 7.5 474.494 7.5 474.349 7.5C474.204 7.5 474.058 7.5 473.912 7.5C473.766 7.5 473.619 7.5 473.471 7.5C473.324 7.5 473.176 7.5 473.027 7.5C472.879 7.5 472.73 7.5 472.58 7.5C472.43 7.5 472.28 7.5 472.129 7.5C471.978 7.5 471.827 7.5 471.675 7.5C471.523 7.5 471.37 7.5 471.217 7.5C471.064 7.5 470.91 7.5 470.756 7.5C470.601 7.5 470.446 7.5 470.291 7.5C470.135 7.5 469.979 7.5 469.823 7.5C469.666 7.5 469.509 7.5 469.351 7.5C469.193 7.5 469.035 7.5 468.876 7.5C468.717 7.5 468.557 7.5 468.397 7.5C468.237 7.5 468.076 7.5 467.915 7.5C467.753 7.5 467.592 7.5 467.429 7.5C467.266 7.5 467.103 7.5 466.94 7.5C466.776 7.5 466.612 7.5 466.447 7.5C466.282 7.5 466.116 7.5 465.95 7.5C465.784 7.5 465.618 7.5 465.45 7.5C465.283 7.5 465.115 7.5 464.947 7.5C464.779 7.5 464.609 7.5 464.44 7.5C464.27 7.5 464.1 7.5 463.929 7.5C463.758 7.5 463.587 7.5 463.415 7.5C463.243 7.5 463.07 7.5 462.897 7.5C462.724 7.5 462.55 7.5 462.376 7.5C462.201 7.5 462.026 7.5 461.85 7.5C461.675 7.5 461.499 7.5 461.322 7.5C461.145 7.5 460.967 7.5 460.789 7.5C460.611 7.5 460.433 7.5 460.253 7.5C460.074 7.5 459.894 7.5 459.714 7.5C459.533 7.5 459.352 7.5 459.171 7.5C458.989 7.5 458.807 7.5 458.624 7.5C458.441 7.5 458.257 7.5 458.073 7.5C457.889 7.5 457.704 7.5 457.519 7.5C457.333 7.5 457.147 7.5 456.961 7.5C456.774 7.5 456.587 7.5 456.399 7.5C456.211 7.5 456.023 7.5 455.834 7.5C455.645 7.5 455.455 7.5 455.265 7.5C455.075 7.5 454.884 7.5 454.692 7.5C454.501 7.5 454.308 7.5 454.116 7.5C453.923 7.5 453.729 7.5 453.535 7.5C453.341 7.5 453.147 7.5 452.952 7.5C452.756 7.5 452.56 7.5 452.364 7.5C452.167 7.5 451.97 7.5 451.772 7.5C451.575 7.5 451.376 7.5 451.177 7.5C450.978 7.5 450.779 7.5 450.578 7.5C450.378 7.5 450.177 7.5 449.976 7.5C449.774 7.5 449.572 7.5 449.369 7.5C449.166 7.5 448.963 7.5 448.759 7.5C448.555 7.5 448.35 7.5 448.145 7.5C447.939 7.5 447.733 7.5 447.527 7.5C447.32 7.5 447.113 7.5 446.905 7.5C446.697 7.5 446.489 7.5 446.279 7.5C446.07 7.5 445.86 7.5 445.65 7.5C445.44 7.5 445.228 7.5 445.017 7.5C444.805 7.5 444.593 7.5 444.38 7.5C444.167 7.5 443.953 7.5 443.739 7.5C443.524 7.5 443.31 7.5 443.094 7.5C442.878 7.5 442.662 7.5 442.445 7.5C442.228 7.5 442.011 7.5 441.793 7.5C441.575 7.5 441.356 7.5 441.136 7.5C440.917 7.5 440.697 7.5 440.476 7.5C440.255 7.5 440.034 7.5 439.812 7.5C439.59 7.5 439.367 7.5 439.144 7.5C438.92 7.5 438.696 7.5 438.472 7.5C438.247 7.5 438.022 7.5 437.796 7.5C437.57 7.5 437.343 7.5 437.116 7.5C436.888 7.5 436.661 7.5 436.432 7.5C436.203 7.5 435.974 7.5 435.744 7.5C435.514 7.5 435.284 7.5 435.052 7.5C434.821 7.5 434.589 7.5 434.357 7.5C434.124 7.5 433.891 7.5 433.657 7.5C433.423 7.5 433.189 7.5 432.953 7.5C432.718 7.5 432.482 7.5 432.246 7.5C432.009 7.5 431.772 7.5 431.534 7.5C431.296 7.5 431.058 7.5 430.819 7.5C430.579 7.5 430.339 7.5 430.099 7.5C429.858 7.5 429.617 7.5 429.375 7.5C429.133 7.5 428.891 7.5 428.647 7.5C428.404 7.5 428.16 7.5 427.916 7.5C427.671 7.5 427.426 7.5 427.18 7.5C426.934 7.5 426.687 7.5 426.44 7.5C426.193 7.5 425.945 7.5 425.696 7.5C425.448 7.5 425.198 7.5 424.948 7.5C424.698 7.5 424.448 7.5 424.196 7.5C423.945 7.5 423.693 7.5 423.44 7.5C423.188 7.5 422.934 7.5 422.68 7.5C422.426 7.5 422.171 7.5 421.916 7.5C421.66 7.5 421.404 7.5 421.147 7.5C420.891 7.5 420.633 7.5 420.375 7.5C420.117 7.5 419.858 7.5 419.598 7.5C419.339 7.5 419.079 7.5 418.818 7.5C418.557 7.5 418.295 7.5 418.033 7.5C417.77 7.5 417.507 7.5 417.244 7.5C416.98 7.5 416.716 7.5 416.451 7.5C416.186 7.5 415.92 7.5 415.653 7.5C415.387 7.5 415.12 7.5 414.852 7.5C414.584 7.5 414.315 7.5 414.046 7.5C413.777 7.5 413.507 7.5 413.236 7.5C412.966 7.5 412.694 7.5 412.422 7.5C412.15 7.5 411.878 7.5 411.604 7.5C411.331 7.5 411.056 7.5 410.782 7.5C410.507 7.5 410.231 7.5 409.955 7.5C409.679 7.5 409.402 7.5 409.124 7.5C408.846 7.5 408.568 7.5 408.289 7.5C408.01 7.5 407.73 7.5 407.45 7.5C407.169 7.5 406.888 7.5 406.606 7.5C406.324 7.5 406.042 7.5 405.758 7.5C405.475 7.5 405.191 7.5 404.906 7.5C404.621 7.5 404.336 7.5 404.05 7.5C403.764 7.5 403.477 7.5 403.189 7.5C402.902 7.5 402.613 7.5 402.324 7.5C402.035 7.5 401.746 7.5 401.455 7.5C401.165 7.5 400.874 7.5 400.582 7.5C400.29 7.5 399.997 7.5 399.704 7.5C399.41 7.5 399.116 7.5 398.822 7.5C398.527 7.5 398.231 7.5 397.935 7.5C397.639 7.5 397.342 7.5 397.044 7.5C396.747 7.5 396.448 7.5 396.149 7.5C395.85 7.5 395.55 7.5 395.25 7.5C394.949 7.5 394.648 7.5 394.346 7.5C394.044 7.5 393.741 7.5 393.438 7.5C393.134 7.5 392.83 7.5 392.525 7.5C392.22 7.5 391.915 7.5 391.608 7.5C391.302 7.5 390.995 7.5 390.687 7.5C390.379 7.5 390.071 7.5 389.761 7.5C389.452 7.5 389.142 7.5 388.831 7.5C388.521 7.5 388.209 7.5 387.897 7.5C387.585 7.5 387.272 7.5 386.958 7.5C386.644 7.5 386.33 7.5 386.015 7.5C385.699 7.5 385.384 7.5 385.067 7.5C384.75 7.5 384.433 7.5 384.115 7.5C383.796 7.5 383.478 7.5 383.158 7.5C382.838 7.5 382.518 7.5 382.197 7.5C381.876 7.5 381.554 7.5 381.231 7.5C380.909 7.5 380.585 7.5 380.261 7.5C379.937 7.5 379.612 7.5 379.287 7.5C378.961 7.5 378.635 7.5 378.308 7.5C377.981 7.5 377.653 7.5 377.324 7.5C376.996 7.5 376.666 7.5 376.336 7.5C376.006 7.5 375.675 7.5 375.344 7.5C375.012 7.5 374.68 7.5 374.347 7.5C374.014 7.5 373.68 7.5 373.345 7.5C373.01 7.5 372.675 7.5 372.339 7.5C372.003 7.5 371.666 7.5 371.328 7.5C370.991 7.5 370.652 7.5 370.313 7.5C369.974 7.5 369.634 7.5 369.293 7.5C368.953 7.5 368.611 7.5 368.269 7.5C367.927 7.5 367.584 7.5 367.24 7.5C366.897 7.5 366.552 7.5 366.207 7.5C365.862 7.5 365.516 7.5 365.169 7.5C364.822 7.5 364.474 7.5 364.126 7.5C363.778 7.5 363.429 7.5 363.079 7.5C362.729 7.5 362.378 7.5 362.027 7.5C361.676 7.5 361.324 7.5 360.971 7.5C360.618 7.5 360.264 7.5 359.909 7.5C359.555 7.5 359.2 7.5 358.844 7.5C358.488 7.5 358.131 7.5 357.773 7.5C357.416 7.5 357.057 7.5 356.698 7.5C356.339 7.5 355.979 7.5 355.619 7.5C355.258 7.5 354.897 7.5 354.534 7.5C354.172 7.5 353.809 7.5 353.445 7.5C353.082 7.5 352.717 7.5 352.352 7.5C351.986 7.5 351.62 7.5 351.253 7.5C350.886 7.5 350.519 7.5 350.15 7.5C349.782 7.5 349.412 7.5 349.042 7.5C348.672 7.5 348.302 7.5 347.93 7.5C347.558 7.5 347.186 7.5 346.813 7.5C346.439 7.5 346.065 7.5 345.691 7.5C345.316 7.5 344.94 7.5 344.564 7.5C344.188 7.5 343.811 7.5 343.433 7.5C343.055 7.5 342.676 7.5 342.296 7.5C341.917 7.5 341.537 7.5 341.156 7.5C340.774 7.5 340.392 7.5 340.01 7.5C339.627 7.5 339.244 7.5 338.859 7.5C338.475 7.5 338.09 7.5 337.704 7.5C337.318 7.5 336.931 7.5 336.544 7.5C336.157 7.5 335.768 7.5 335.379 7.5C334.99 7.5 334.6 7.5 334.21 7.5C333.819 7.5 333.427 7.5 333.035 7.5C332.643 7.5 332.25 7.5 331.856 7.5C331.462 7.5 331.067 7.5 330.672 7.5C330.276 7.5 329.88 7.5 329.483 7.5C329.086 7.5 328.688 7.5 328.289 7.5C327.89 7.5 327.491 7.5 327.09 7.5C326.69 7.5 326.289 7.5 325.887 7.5C325.485 7.5 325.082 7.5 324.678 7.5C324.275 7.5 323.87 7.5 323.465 7.5C323.06 7.5 322.654 7.5 322.247 7.5C321.84 7.5 321.432 7.5 321.024 7.5C320.615 7.5 320.206 7.5 319.796 7.5C319.386 7.5 318.975 7.5 318.563 7.5C318.151 7.5 317.739 7.5 317.325 7.5C316.912 7.5 316.498 7.5 316.083 7.5C315.668 7.5 315.252 7.5 314.835 7.5C314.418 7.5 314.001 7.5 313.583 7.5C313.164 7.5 312.745 7.5 312.325 7.5C311.905 7.5 311.484 7.5 311.063 7.5C310.641 7.5 310.218 7.5 309.795 7.5C309.372 7.5 308.948 7.5 308.523 7.5C308.098 7.5 307.672 7.5 307.245 7.5C306.819 7.5 306.391 7.5 305.963 7.5C305.535 7.5 305.106 7.5 304.676 7.5C304.246 7.5 303.815 7.5 303.383 7.5C302.952 7.5 302.519 7.5 302.086 7.5C301.653 7.5 301.219 7.5 300.784 7.5C300.349 7.5 299.913 7.5 299.476 7.5C299.04 7.5 298.602 7.5 298.164 7.5C297.726 7.5 297.286 7.5 296.846 7.5C296.406 7.5 295.966 7.5 295.524 7.5C295.082 7.5 294.64 7.5 294.196 7.5C293.753 7.5 293.309 7.5 292.864 7.5C292.419 7.5 291.973 7.5 291.526 7.5C291.079 7.5 290.632 7.5 290.183 7.5C289.735 7.5 289.286 7.5 288.835 7.5C288.385 7.5 287.934 7.5 287.482 7.5C287.031 7.5 286.578 7.5 286.124 7.5C285.671 7.5 285.216 7.5 284.761 7.5C284.306 7.5 283.85 7.5 283.393 7.5C282.936 7.5 282.478 7.5 282.02 7.5C281.561 7.5 281.101 7.5 280.641 7.5C280.181 7.5 279.719 7.5 279.257 7.5C278.795 7.5 278.332 7.5 277.868 7.5C277.405 7.5 276.94 7.5 276.474 7.5C276.009 7.5 275.543 7.5 275.075 7.5C274.608 7.5 274.14 7.5 273.671 7.5C273.202 7.5 272.732 7.5 272.261 7.5C271.791 7.5 271.319 7.5 270.847 7.5C270.374 7.5 269.901 7.5 269.427 7.5C268.953 7.5 268.478 7.5 268.002 7.5C267.526 7.5 267.049 7.5 266.571 7.5C266.094 7.5 265.615 7.5 265.136 7.5C264.656 7.5 264.176 7.5 263.695 7.5C263.214 7.5 262.732 7.5 262.249 7.5C261.766 7.5 261.282 7.5 260.798 7.5C260.313 7.5 259.828 7.5 259.341 7.5C258.855 7.5 258.368 7.5 257.88 7.5C257.391 7.5 256.902 7.5 256.413 7.5C255.923 7.5 255.432 7.5 254.94 7.5C254.449 7.5 253.956 7.5 253.463 7.5C252.969 7.5 252.475 7.5 251.98 7.5C251.485 7.5 250.989 7.5 250.492 7.5C249.995 7.5 249.497 7.5 248.998 7.5C248.5 7.5 248 7.5 247.499 7.5C246.999 7.5 246.498 7.5 245.995 7.5C245.493 7.5 244.99 7.5 244.486 7.5C243.982 7.5 243.477 7.5 242.971 7.5C242.465 7.5 241.959 7.5 241.451 7.5C240.944 7.5 240.435 7.5 239.926 7.5C239.416 7.5 238.906 7.5 238.395 7.5C237.884 7.5 237.372 7.5 236.859 7.5C236.346 7.5 235.832 7.5 235.317 7.5C234.802 7.5 234.287 7.5 233.77 7.5C233.254 7.5 232.736 7.5 232.218 7.5C231.699 7.5 231.18 7.5 230.66 7.5C230.14 7.5 229.619 7.5 229.097 7.5C228.575 7.5 228.052 7.5 227.528 7.5C227.005 7.5 226.48 7.5 225.954 7.5C225.429 7.5 224.902 7.5 224.375 7.5C223.848 7.5 223.319 7.5 222.79 7.5C222.261 7.5 221.731 7.5 221.2 7.5C220.669 7.5 220.137 7.5 219.604 7.5C219.071 7.5 218.538 7.5 218.003 7.5C217.468 7.5 216.933 7.5 216.396 7.5C215.86 7.5 215.322 7.5 214.784 7.5C214.246 7.5 213.707 7.5 213.166 7.5C212.626 7.5 212.085 7.5 211.543 7.5C211.001 7.5 210.458 7.5 209.915 7.5C209.371 7.5 208.826 7.5 208.281 7.5C207.735 7.5 207.188 7.5 206.641 7.5C206.093 7.5 205.545 7.5 204.996 7.5C204.446 7.5 203.896 7.5 203.345 7.5C202.794 7.5 202.242 7.5 201.689 7.5C201.136 7.5 200.582 7.5 200.027 7.5C199.472 7.5 198.916 7.5 198.36 7.5C197.803 7.5 197.245 7.5 196.687 7.5C196.128 7.5 195.569 7.5 195.008 7.5C194.448 7.5 193.886 7.5 193.324 7.5C192.762 7.5 192.199 7.5 191.635 7.5C191.07 7.5 190.505 7.5 189.939 7.5C189.373 7.5 188.806 7.5 188.238 7.5C187.671 7.5 187.102 7.5 186.532 7.5C185.962 7.5 185.392 7.5 184.82 7.5C184.248 7.5 183.676 7.5 183.102 7.5C182.529 7.5 181.954 7.5 181.379 7.5C180.803 7.5 180.227 7.5 179.65 7.5C179.073 7.5 178.494 7.5 177.915 7.5C177.336 7.5 176.756 7.5 176.175 7.5C175.594 7.5 175.012 7.5 174.429 7.5C173.846 7.5 173.262 7.5 172.677 7.5C172.093 7.5 171.507 7.5 170.92 7.5C170.333 7.5 169.746 7.5 169.157 7.5C168.569 7.5 167.979 7.5 167.389 7.5C166.798 7.5 166.207 7.5 165.614 7.5C165.022 7.5 164.428 7.5 163.834 7.5C163.24 7.5 162.644 7.5 162.048 7.5C161.452 7.5 160.855 7.5 160.257 7.5C159.659 7.5 159.059 7.5 158.459 7.5C157.859 7.5 157.258 7.5 156.656 7.5C156.054 7.5 155.452 7.5 154.848 7.5C154.244 7.5 153.639 7.5 153.033 7.5C152.427 7.5 151.821 7.5 151.213 7.5C150.605 7.5 149.996 7.5 149.387 7.5C148.777 7.5 148.167 7.5 147.555 7.5C146.943 7.5 146.331 7.5 145.717 7.5C145.104 7.5 144.489 7.5 143.874 7.5C143.258 7.5 142.642 7.5 142.025 7.5C141.407 7.5 140.789 7.5 140.17 7.5C139.55 7.5 138.93 7.5 138.309 7.5C137.688 7.5 137.065 7.5 136.442 7.5C135.819 7.5 135.195 7.5 134.57 7.5C133.944 7.5 133.318 7.5 132.691 7.5C132.064 7.5 131.436 7.5 130.807 7.5C130.178 7.5 129.548 7.5 128.917 7.5C128.286 7.5 127.654 7.5 127.021 7.5C126.388 7.5 125.754 7.5 125.119 7.5C124.484 7.5 123.848 7.5 123.211 7.5C122.575 7.5 121.937 7.5 121.298 7.5C120.659 7.5 120.019 7.5 119.378 7.5C118.738 7.5 118.096 7.5 117.453 7.5C116.81 7.5 116.166 7.5 115.522 7.5C114.877 7.5 114.231 7.5 113.584 7.5C112.938 7.5 112.29 7.5 111.641 7.5C110.992 7.5 110.343 7.5 109.692 7.5C109.041 7.5 108.39 7.5 107.737 7.5C107.084 7.5 106.431 7.5 105.776 7.5C105.121 7.5 104.466 7.5 103.809 7.5C103.152 7.5 102.495 7.5 101.836 7.5C101.178 7.5 100.518 7.5 99.8573 7.5C99.1966 7.5 98.535 7.5 97.8724 7.5C97.2097 7.5 96.5461 7.5 95.8815 7.5C95.2169 7.5 94.5512 7.5 93.8846 7.5C93.218 7.5 92.5503 7.5 91.8817 7.5C91.2131 7.5 90.5434 7.5 89.8728 7.5C89.2022 7.5 88.5305 7.5 87.8579 7.5C87.1852 7.5 86.5116 7.5 85.8369 7.5C85.1623 7.5 84.4866 7.5 83.8099 7.5C83.1333 7.5 82.4556 7.5 81.7769 7.5C81.0982 7.5 80.4185 7.5 79.7378 7.5C79.0571 7.5 78.3754 7.5 77.6926 7.5C77.0099 7.5 76.3262 7.5 75.6414 7.5C74.9566 7.5 74.2709 7.5 73.5841 7.5C72.8973 7.5 72.2095 7.5 71.5207 7.5C70.8319 7.5 70.1421 7.5 69.4512 7.5C68.7604 7.5 68.0685 7.5 67.3756 7.5C66.6827 7.5 65.9888 7.5 65.2939 7.5C64.599 7.5 63.9031 7.5 63.2061 7.5C62.5092 7.5 61.8112 7.5 61.1122 7.5C60.4132 7.5 59.7132 7.5 59.0121 7.5C58.3111 7.5 57.609 7.5 56.9059 7.5C56.2028 7.5 55.4987 7.5 54.7935 7.5C54.0884 7.5 53.3822 7.5 52.675 7.5C51.9678 7.5 51.2596 7.5 50.5503 7.5C49.8411 7.5 49.1308 7.5 48.4195 7.5C47.7082 7.5 46.9958 7.5 46.2825 7.5C45.5691 7.5 44.8547 7.5 44.1392 7.5C43.4238 7.5 42.7073 7.5 41.9898 7.5C41.2723 7.5 40.5538 7.5 39.8342 7.5C39.1147 7.5 38.394 7.5 37.6724 7.5C36.9508 7.5 36.2281 7.5 35.5044 7.5C34.7806 7.5 34.0559 7.5 33.3301 7.5C32.6043 7.5 31.8775 7.5 31.1496 7.5C30.4217 7.5 29.6928 7.5 28.9628 7.5C28.2329 7.5 27.5019 7.5 26.7699 7.5C26.0378 7.5 25.3047 7.5 24.5706 7.5C23.8365 7.5 23.1013 7.5 22.3651 7.5C21.6289 7.5 20.8916 7.5 20.1533 7.5C19.415 7.5 18.6756 7.5 17.9352 7.5C17.1948 7.5 16.4534 7.5 15.7109 7.5C14.9684 7.5 14.2248 7.5 13.4802 7.5C12.7356 7.5 11.99 7.5 11.2433 7.5C10.4966 7.5 9.74881 7.5 9 7.5V10.5ZM505.388 10.5L549 10.5V7.5L505.388 7.5V10.5Z" fill="white"/>
</svg>
