<svg width="201" height="202" viewBox="0 0 201 202" fill="none" xmlns="http://www.w3.org/2000/svg">
<g id="Spinner">
<g clip-path="url(#clip0_102_14)">
<rect id="Rectangle 2" x="-74.7471" y="-24.5708" width="174.845" height="334.525" fill="black"/>
<rect id="Rectangle 3" x="100" y="1" width="174.845" height="334.525" fill="white"/>
<path id="B" d="M57.0934 134.589C53.5734 134.592 49.8928 134.156 46.0518 133.279C42.2908 132.403 39.0888 130.726 36.4458 128.248C36.2856 128.089 36.2055 127.929 36.2053 127.769C36.2049 127.449 36.4047 127.288 36.8047 127.288L37.2848 127.408C39.6858 128.205 42.1264 128.763 44.6068 129.081C47.0872 129.398 49.5674 129.556 52.0474 129.554C54.6874 129.551 57.7669 129.148 61.286 128.345C64.8049 127.462 68.2034 126.178 71.4814 124.495C74.8394 122.812 77.597 120.729 79.754 118.247C81.9111 115.765 82.9877 112.884 82.9838 109.604C82.9808 107.124 82.1387 105.285 80.4572 104.087C78.7757 102.808 76.7747 101.93 74.4541 101.452C72.2135 100.975 70.1333 100.736 68.2133 100.738C66.1333 100.74 63.6935 100.983 60.8941 101.465C58.0946 101.868 55.4154 102.59 52.8567 103.633C50.2978 104.595 48.2994 105.917 46.8614 107.599C44.0654 111.041 41.6299 114.763 39.5546 118.765C37.5592 122.687 35.4038 126.529 33.0883 130.292C32.7692 131.092 32.2897 131.492 31.6497 131.493C31.2497 131.493 31.0494 131.254 31.0488 130.774C31.0484 130.454 31.0882 130.253 31.1681 130.173C31.8055 128.013 32.6431 125.932 33.6807 123.931C34.7982 121.85 35.8759 119.849 36.9136 117.928C37.3128 117.208 38.0712 115.887 39.1889 113.966C40.3865 111.965 41.7838 109.643 43.3807 107.002C44.9774 104.28 46.6542 101.519 48.4109 98.7171C50.2474 95.8353 51.9643 93.1537 53.5613 90.6722C55.1584 88.1907 56.516 86.1894 57.6342 84.6683C58.8324 83.1472 59.5915 82.3865 59.9115 82.3862C60.3115 82.3858 60.9517 82.5452 61.8321 82.8643C62.7924 83.1034 63.7127 83.4226 64.5932 83.8217C65.4736 84.1409 66.034 84.4604 66.2743 84.7801C63.8776 87.5024 61.4808 90.2247 59.084 92.9469C56.6872 95.5892 54.3303 98.2715 52.0136 100.994C55.773 100.51 59.692 99.7064 63.7707 98.5825C67.8493 97.3786 71.6077 96.0151 75.0459 94.4918C76.2452 93.9307 77.6843 93.1693 79.3632 92.2077C81.0419 91.1661 82.7206 90.0046 84.399 88.723C86.0774 87.3614 87.4758 85.96 88.5941 84.519C89.7124 83.0779 90.2706 81.5974 90.2688 80.0774C90.267 78.5574 89.6257 77.438 88.3448 76.7192C87.144 76.0004 85.7434 75.5617 84.1433 75.4032C82.623 75.1646 81.3028 75.0459 80.1828 75.0469C75.7028 75.0512 71.3435 75.6553 67.105 76.8593C62.8663 77.9834 58.6278 79.2274 54.3894 80.5914C54.0695 80.6717 53.7496 80.752 53.4297 80.8323C53.1098 80.9126 52.7898 80.9529 52.4698 80.9532C51.5098 80.9541 50.7894 80.6348 50.3087 79.9953C49.8279 79.3557 49.587 78.5959 49.586 77.7159C49.5836 75.7159 50.422 74.3551 52.1011 73.6336C52.6608 73.393 53.2207 73.2325 53.7806 73.152C54.4204 72.9914 55.0202 72.8708 55.5801 72.7903C59.419 71.8266 63.298 70.9429 67.217 70.1392C71.2161 69.3354 75.1756 68.9317 79.0956 68.928C81.2556 68.9259 83.6159 69.2037 86.1766 69.7613C88.8171 70.2388 91.0583 71.1966 92.9 72.6349C94.8217 74.0731 95.7842 76.1922 95.7875 78.9922C95.7906 81.5522 94.8333 83.9131 92.9159 86.0749C90.9984 88.1567 88.6006 89.999 85.7224 91.6017C82.8443 93.2044 79.966 94.5672 77.0873 95.6899C74.2886 96.8125 71.8896 97.6548 69.8903 98.2167C67.9709 98.7785 67.0113 99.0994 67.0114 99.1794L67.3714 99.1791C68.0114 99.1785 68.6514 99.1779 69.2914 99.1773C70.0113 99.0966 70.6913 99.056 71.3313 99.0553C73.2513 99.0535 75.3315 99.2516 77.572 99.6494C79.8924 99.9672 82.0531 100.565 84.0541 101.443C86.1352 102.321 87.8166 103.56 89.0985 105.159C90.4603 106.677 91.1427 108.677 91.1456 111.157C91.1476 112.837 90.8296 114.477 90.1914 116.077C89.5533 117.598 88.755 119.039 87.7966 120.4C85.5604 123.602 82.7635 126.245 79.406 128.328C76.0484 130.411 72.4503 131.974 68.6115 133.018C64.7727 134.062 60.9334 134.585 57.0934 134.589Z" fill="white"/>
<path id="B_2" d="M131.093 134.589C127.573 134.592 123.893 134.156 120.052 133.279C116.291 132.403 113.089 130.726 110.446 128.248C110.286 128.089 110.205 127.929 110.205 127.769C110.205 127.449 110.405 127.288 110.805 127.288L111.285 127.408C113.686 128.205 116.126 128.763 118.607 129.081C121.087 129.398 123.567 129.556 126.047 129.554C128.687 129.551 131.767 129.148 135.286 128.345C138.805 127.462 142.203 126.178 145.481 124.495C148.839 122.812 151.597 120.729 153.754 118.247C155.911 115.765 156.988 112.884 156.984 109.604C156.981 107.124 156.139 105.285 154.457 104.087C152.776 102.808 150.775 101.93 148.454 101.452C146.214 100.975 144.133 100.736 142.213 100.738C140.133 100.74 137.694 100.983 134.894 101.465C132.095 101.868 129.415 102.59 126.857 103.633C124.298 104.595 122.299 105.917 120.861 107.599C118.065 111.041 115.63 114.763 113.555 118.765C111.559 122.687 109.404 126.529 107.088 130.292C106.769 131.092 106.29 131.492 105.65 131.493C105.25 131.493 105.049 131.254 105.049 130.774C105.048 130.454 105.088 130.253 105.168 130.173C105.806 128.013 106.643 125.932 107.681 123.931C108.798 121.85 109.876 119.849 110.914 117.928C111.313 117.208 112.071 115.887 113.189 113.966C114.387 111.965 115.784 109.643 117.381 107.002C118.977 104.28 120.654 101.519 122.411 98.7171C124.247 95.8353 125.964 93.1537 127.561 90.6722C129.158 88.1907 130.516 86.1894 131.634 84.6683C132.832 83.1472 133.592 82.3865 133.912 82.3862C134.312 82.3858 134.952 82.5452 135.832 82.8643C136.792 83.1034 137.713 83.4226 138.593 83.8217C139.474 84.1409 140.034 84.4604 140.274 84.7801C137.878 87.5024 135.481 90.2247 133.084 92.9469C130.687 95.5892 128.33 98.2715 126.014 100.994C129.773 100.51 133.692 99.7064 137.771 98.5825C141.849 97.3786 145.608 96.0151 149.046 94.4918C150.245 93.9307 151.684 93.1693 153.363 92.2077C155.042 91.1661 156.721 90.0046 158.399 88.723C160.077 87.3614 161.476 85.96 162.594 84.519C163.712 83.0779 164.271 81.5974 164.269 80.0774C164.267 78.5574 163.626 77.438 162.345 76.7192C161.144 76.0004 159.743 75.5617 158.143 75.4032C156.623 75.1646 155.303 75.0459 154.183 75.0469C149.703 75.0512 145.344 75.6553 141.105 76.8593C136.866 77.9834 132.628 79.2274 128.389 80.5914C128.069 80.6717 127.75 80.752 127.43 80.8323C127.11 80.9126 126.79 80.9529 126.47 80.9532C125.51 80.9541 124.789 80.6348 124.309 79.9953C123.828 79.3557 123.587 78.5959 123.586 77.7159C123.584 75.7159 124.422 74.3551 126.101 73.6336C126.661 73.393 127.221 73.2325 127.781 73.152C128.42 72.9914 129.02 72.8708 129.58 72.7903C133.419 71.8266 137.298 70.9429 141.217 70.1392C145.216 69.3354 149.176 68.9317 153.096 68.928C155.256 68.9259 157.616 69.2037 160.177 69.7613C162.817 70.2388 165.058 71.1966 166.9 72.6349C168.822 74.0731 169.784 76.1922 169.788 78.9922C169.791 81.5522 168.833 83.9131 166.916 86.0749C164.998 88.1567 162.601 89.999 159.722 91.6017C156.844 93.2044 153.966 94.5672 151.087 95.6899C148.289 96.8125 145.89 97.6548 143.89 98.2167C141.971 98.7785 141.011 99.0994 141.011 99.1794L141.371 99.1791C142.011 99.1785 142.651 99.1779 143.291 99.1773C144.011 99.0966 144.691 99.056 145.331 99.0553C147.251 99.0535 149.332 99.2516 151.572 99.6494C153.892 99.9672 156.053 100.565 158.054 101.443C160.135 102.321 161.817 103.56 163.099 105.159C164.46 106.677 165.143 108.677 165.146 111.157C165.148 112.837 164.83 114.477 164.191 116.077C163.553 117.598 162.755 119.039 161.797 120.4C159.56 123.602 156.763 126.245 153.406 128.328C150.048 130.411 146.45 131.974 142.612 133.018C138.773 134.062 134.933 134.585 131.093 134.589Z" fill="black"/>
</g>
</g>
<defs>
<clipPath id="clip0_102_14">
<rect x="0.532349" y="1.14771" width="200" height="200" rx="100" transform="rotate(-0.0607075 0.532349 1.14771)" fill="white"/>
</clipPath>
</defs>
</svg>
